<svg width="738" height="372" viewBox="0 0 738 372" fill="none" xmlns="http://www.w3.org/2000/svg">
<path d="M402.138 47.4798C400.954 46.2974 399.007 46.2974 397.823 47.4798C396.129 49.1716 393.345 49.1716 391.651 47.4798C390.466 46.2974 388.52 46.2974 387.335 47.4798C385.642 49.1716 382.859 49.1716 381.166 47.4798C379.981 46.2974 378.034 46.2974 376.849 47.4798C375.156 49.1715 372.372 49.1715 370.679 47.4798C369.495 46.2954 367.547 46.2954 366.363 47.4798C366.24 47.6015 366.074 47.6698 365.902 47.6698C365.542 47.6698 365.247 47.3739 365.247 47.0144C365.247 46.8418 365.315 46.676 365.436 46.5533C366.254 45.7342 367.364 45.2734 368.521 45.2734C369.678 45.2734 370.788 45.7342 371.606 46.5533C372.791 47.7366 374.738 47.7366 375.923 46.5533C377.617 44.8625 380.399 44.8625 382.093 46.5533C383.278 47.7366 385.225 47.7366 386.41 46.5533C388.103 44.8625 390.886 44.8625 392.579 46.5533C393.764 47.7366 395.711 47.7366 396.895 46.5533C398.589 44.8627 401.372 44.8627 403.066 46.5533C404.25 47.7377 406.198 47.7377 407.382 46.5533C407.505 46.4289 407.673 46.3589 407.848 46.3589C408.207 46.3589 408.503 46.6548 408.503 47.0144C408.503 47.1891 408.433 47.3569 408.309 47.4798C407.491 48.2989 406.381 48.7597 405.224 48.7597C404.067 48.7597 402.956 48.2989 402.139 47.4798H402.138ZM402.138 40.9212C400.954 39.7368 399.006 39.7368 397.823 40.9212C396.128 42.6121 393.345 42.6121 391.651 40.9212C390.467 39.7368 388.519 39.7368 387.335 40.9212C385.642 42.6121 382.859 42.6121 381.166 40.9212C379.981 39.7369 378.033 39.7369 376.849 40.9212C375.155 42.6119 372.373 42.6119 370.679 40.9212C370.107 40.3476 369.33 40.0249 368.521 40.0249C367.711 40.0249 366.934 40.3476 366.363 40.9212C366.24 41.0422 366.075 41.1102 365.902 41.1102C365.543 41.1102 365.247 40.814 365.247 40.454C365.247 40.2815 365.315 40.1156 365.436 39.9928C366.254 39.1737 367.364 38.7129 368.521 38.7129C369.678 38.7129 370.788 39.1737 371.606 39.9928C372.791 41.1762 374.738 41.1762 375.923 39.9928C377.617 38.302 380.399 38.302 382.093 39.9928C383.278 41.1762 385.225 41.1762 386.41 39.9928C388.103 38.302 390.886 38.302 392.579 39.9928C393.764 41.1762 395.711 41.1762 396.895 39.9928C398.589 38.3021 401.372 38.3021 403.066 39.9928C404.25 41.1772 406.198 41.1772 407.382 39.9928C407.505 39.8682 407.673 39.7979 407.848 39.7979C408.208 39.7979 408.504 40.0941 408.504 40.454C408.504 40.6296 408.434 40.798 408.309 40.9212C407.491 41.7403 406.381 42.201 405.224 42.201C404.067 42.201 402.956 41.7403 402.139 40.9212H402.138ZM402.138 34.3596C400.954 33.1762 399.007 33.1762 397.823 34.3596C396.128 36.0505 393.345 36.0505 391.651 34.3596C390.467 33.1762 388.52 33.1762 387.335 34.3596C385.642 36.0505 382.859 36.0505 381.166 34.3596C379.981 33.1762 378.034 33.1762 376.849 34.3596C375.155 36.0503 372.373 36.0503 370.679 34.3596C369.495 33.1752 367.547 33.1752 366.363 34.3596C366.24 34.4813 366.074 34.5496 365.902 34.5496C365.542 34.5496 365.247 34.2537 365.247 33.8941C365.247 33.7216 365.315 33.5558 365.436 33.433C366.254 32.6139 367.364 32.1531 368.521 32.1531C369.678 32.1531 370.788 32.6139 371.606 33.433C372.791 34.6164 374.738 34.6164 375.923 33.433C377.617 31.7423 380.399 31.7423 382.093 33.433C383.278 34.6164 385.225 34.6164 386.41 33.433C388.103 31.7423 390.886 31.7423 392.579 33.433C393.764 34.6164 395.711 34.6164 396.895 33.433C398.589 31.7424 401.372 31.7424 403.066 33.433C403.637 34.0078 404.414 34.3301 405.224 34.3275C406.033 34.3301 406.811 34.0076 407.382 33.433C407.505 33.3087 407.673 33.2386 407.847 33.2386C408.207 33.2386 408.502 33.5345 408.502 33.8941C408.502 34.0689 408.433 34.2366 408.309 34.3596C407.493 35.181 406.381 35.6422 405.224 35.6395C404.066 35.6418 402.955 35.1806 402.138 34.3596Z" fill="#CEE2FF"/>
<path fill-rule="evenodd" clip-rule="evenodd" d="M402.029 47.7495H402.027C402.027 47.7495 401.951 47.6741 401.948 47.6708L401.948 47.6706C400.867 46.5926 399.093 46.5929 398.013 47.6708C396.215 49.467 393.259 49.467 391.461 47.6708C390.381 46.5927 388.606 46.5927 387.526 47.6707C385.728 49.467 382.773 49.467 380.976 47.6708C379.895 46.5926 378.12 46.5926 377.039 47.6707C375.241 49.4668 372.286 49.4668 370.488 47.6707C369.409 46.5908 367.633 46.5908 366.553 47.671L366.553 47.6714C366.38 47.8431 366.145 47.9397 365.902 47.9397C365.394 47.9397 364.977 47.522 364.977 47.0145C364.977 46.7708 365.073 46.5368 365.245 46.3632L365.245 46.3628C366.113 45.4931 367.293 45.0038 368.521 45.0038C369.749 45.0038 370.928 45.4931 371.796 46.3625C372.877 47.4415 374.652 47.4415 375.733 46.3625C377.531 44.5674 380.485 44.5674 382.283 46.3625C383.364 47.4415 385.139 47.4415 386.219 46.3625C388.017 44.5674 390.971 44.5675 392.77 46.3625C393.85 47.4415 395.625 47.4415 396.705 46.3625C398.503 44.5675 401.458 44.5676 403.257 46.3626C404.336 47.4425 406.112 47.4425 407.191 46.3636C407.364 46.1882 407.601 46.0893 407.848 46.0893C408.355 46.0893 408.772 46.507 408.772 47.0145C408.772 47.2612 408.674 47.4978 408.499 47.6705C407.631 48.5403 406.452 49.0296 405.224 49.0296C404.033 49.0296 402.888 48.5699 402.029 47.7495ZM402.267 47.4375C402.267 47.4382 402.267 47.439 402.267 47.4398L402.329 47.2894C403.096 48.0579 404.138 48.4902 405.224 48.4902C406.309 48.4902 407.351 48.0579 408.119 47.2889L408.119 47.2885C408.192 47.216 408.233 47.1174 408.233 47.0145C408.233 46.8028 408.059 46.6287 407.848 46.6287C407.745 46.6287 407.646 46.6699 407.573 46.7437L407.573 46.744C406.284 48.0331 404.164 48.0331 402.876 46.7443C401.286 45.1579 398.675 45.1579 397.085 46.7442C395.796 48.032 393.678 48.032 392.389 46.7443C390.8 45.1579 388.189 45.1579 386.6 46.7443C385.311 48.0319 383.192 48.0319 381.903 46.7443C380.314 45.1579 377.703 45.1579 376.114 46.7443C374.824 48.032 372.705 48.032 371.415 46.7442L371.415 46.7439C370.648 45.9754 369.606 45.5432 368.521 45.5432C367.436 45.5432 366.394 45.9753 365.627 46.7434C365.556 46.8155 365.516 46.913 365.516 47.0145C365.516 47.2262 365.69 47.4003 365.902 47.4003C366.003 47.4003 366.101 47.3601 366.173 47.2885C367.462 46.0002 369.581 46.0004 370.869 47.2891C372.458 48.8763 375.07 48.8763 376.659 47.289C377.948 46.0022 380.067 46.0022 381.356 47.289C382.945 48.8765 385.556 48.8765 387.145 47.289C388.434 46.0024 390.552 46.0024 391.842 47.289C393.431 48.8765 396.043 48.8765 397.632 47.289C398.922 46.0024 401.039 46.0022 402.329 47.289L402.267 47.4375ZM402.029 41.1909H402.027C402.027 41.1909 401.949 41.1126 401.948 41.112C400.868 40.032 399.092 40.0322 398.013 41.1122C396.214 42.9073 393.26 42.9073 391.461 41.1121C390.381 40.0322 388.605 40.0322 387.526 41.1121C385.728 42.9073 382.773 42.9073 380.976 41.1121C379.896 40.0323 378.119 40.0323 377.039 41.1122C375.241 42.9072 372.287 42.9073 370.488 41.112L370.488 41.1117C369.967 40.5889 369.259 40.2947 368.521 40.2947C367.783 40.2947 367.075 40.5889 366.553 41.1125L366.552 41.1132C366.379 41.2841 366.146 41.3799 365.903 41.3799C365.395 41.3799 364.977 40.9621 364.977 40.4541C364.977 40.2105 365.073 39.9766 365.245 39.8029L365.245 39.8024C366.113 38.9327 367.293 38.4434 368.521 38.4434C369.749 38.4434 370.928 38.9327 371.796 39.802C372.877 40.881 374.652 40.881 375.733 39.802C377.531 38.0068 380.485 38.0068 382.283 39.802C383.364 40.881 385.139 40.881 386.219 39.802C388.017 38.0068 390.972 38.0068 392.77 39.802C393.85 40.881 395.625 40.881 396.705 39.802C398.503 38.0069 401.458 38.0069 403.257 39.8021C404.336 40.8821 406.112 40.8821 407.19 39.8034C407.364 39.6274 407.601 39.5284 407.849 39.5284C408.356 39.5284 408.774 39.9462 408.774 40.4541C408.774 40.7012 408.675 40.9384 408.499 41.1122C407.631 41.9817 406.452 42.4708 405.224 42.4708C404.033 42.4708 402.888 42.0112 402.029 41.1909ZM402.267 40.88C402.267 40.8804 402.267 40.8808 402.267 40.8812L402.329 40.7308C403.096 41.4992 404.138 41.9314 405.224 41.9314C406.309 41.9314 407.351 41.4992 408.119 40.73L408.12 40.7293C408.193 40.6567 408.235 40.5576 408.235 40.4541C408.235 40.2421 408.06 40.0676 407.849 40.0676C407.745 40.0676 407.646 40.109 407.573 40.1831L407.573 40.1836C406.284 41.4727 404.164 41.4727 402.876 40.1839C401.286 38.5973 398.675 38.5973 397.085 40.1837C395.796 41.4715 393.678 41.4715 392.389 40.1839C390.8 38.5973 388.189 38.5973 386.6 40.1839C385.311 41.4714 383.192 41.4714 381.903 40.1839C380.314 38.5973 377.703 38.5973 376.114 40.1839C374.824 41.4715 372.705 41.4715 371.415 40.1837L371.415 40.1835C370.648 39.415 369.606 38.9828 368.521 38.9828C367.436 38.9828 366.394 39.4147 365.627 40.1828C365.556 40.2551 365.516 40.3527 365.516 40.4541C365.516 40.6662 365.691 40.8406 365.903 40.8406C366.004 40.8406 366.101 40.8006 366.173 40.7296C366.795 40.1061 367.64 39.7553 368.521 39.7553C369.402 39.7553 370.247 40.1066 370.869 40.7304C372.458 42.3168 375.069 42.3168 376.659 40.7305C377.947 39.4418 380.067 39.4418 381.356 40.7304C382.945 42.3169 385.556 42.3169 387.145 40.7306C388.433 39.4415 390.553 39.4415 391.842 40.7304C393.431 42.3169 396.043 42.3169 397.632 40.7306C398.921 39.4415 401.041 39.4415 402.329 40.7306L402.267 40.88ZM401.948 34.5505C400.868 33.4716 399.093 33.4716 398.013 34.5506C396.214 36.3457 393.26 36.3457 391.461 34.5506C390.381 33.4716 388.606 33.4716 387.526 34.5506C385.728 36.3458 382.773 36.3458 380.976 34.5506C379.895 33.4716 378.12 33.4716 377.039 34.5506C375.241 36.3457 372.287 36.3456 370.488 34.5505C369.409 33.4705 367.633 33.4705 366.553 34.5507L366.553 34.5511C366.38 34.7229 366.145 34.8195 365.902 34.8195C365.394 34.8195 364.977 34.4017 364.977 33.8942C364.977 33.6506 365.073 33.4166 365.245 33.243L365.245 33.2426C366.113 32.3729 367.293 31.8836 368.521 31.8836C369.749 31.8836 370.928 32.3729 371.796 33.2422C372.877 34.3212 374.652 34.3212 375.733 33.2422C377.531 31.4471 380.485 31.4471 382.283 33.2422C383.364 34.3212 385.139 34.3212 386.219 33.2422C388.017 31.4471 390.971 31.4473 392.77 33.2422C393.85 34.3212 395.625 34.3212 396.705 33.2422C398.503 31.4473 401.458 31.4473 403.257 33.2426L403.257 33.2431C403.777 33.7666 404.486 34.0603 405.224 34.058H405.225C405.962 34.0603 406.671 33.7666 407.19 33.2434C407.364 33.068 407.601 32.9691 407.847 32.9691C408.355 32.9691 408.772 33.3868 408.772 33.8942C408.772 34.1403 408.674 34.3765 408.5 34.5501C407.633 35.4223 406.453 35.9119 405.224 35.9092C403.995 35.9115 402.815 35.422 401.948 34.5505ZM402.329 34.1695C403.095 34.9396 404.138 35.372 405.224 35.37H405.224C406.31 35.3724 407.352 34.94 408.118 34.1689L408.119 34.1682C408.192 34.0957 408.233 33.9971 408.233 33.8942C408.233 33.6826 408.059 33.5085 407.847 33.5085C407.745 33.5085 407.646 33.5496 407.573 33.623L407.573 33.6233C406.952 34.2487 406.105 34.5998 405.224 34.5972C404.343 34.5999 403.497 34.2491 402.876 33.6239C401.286 32.0376 398.675 32.0378 397.085 33.6239C395.796 34.9117 393.678 34.9117 392.389 33.6241C390.8 32.0376 388.189 32.0376 386.6 33.6241C385.311 34.9116 383.192 34.9116 381.903 33.6241C380.314 32.0376 377.703 32.0376 376.114 33.6241C374.824 34.9117 372.705 34.9117 371.415 33.6239L371.415 33.6237C370.648 32.8552 369.606 32.423 368.521 32.423C367.436 32.423 366.394 32.8551 365.627 33.6232C365.556 33.6953 365.516 33.7927 365.516 33.8942C365.516 34.106 365.69 34.2801 365.902 34.2801C366.003 34.2801 366.101 34.2398 366.173 34.1682C367.462 32.8799 369.581 32.8802 370.869 34.1688C372.458 35.7552 375.069 35.7552 376.659 34.1688C377.948 32.8811 380.067 32.8811 381.356 34.1688C382.945 35.7553 385.556 35.7553 387.145 34.1689C388.434 32.8811 390.553 32.8811 391.842 34.1688C393.431 35.7553 396.043 35.7553 397.632 34.1689C398.921 32.8811 401.04 32.8811 402.329 34.1691L402.329 34.1695Z" fill="#CEE2FF"/>
<path d="M443.631 47.8842C442.446 46.7018 440.5 46.7018 439.315 47.8842C437.621 49.576 434.837 49.576 433.144 47.8842C431.959 46.7018 430.012 46.7018 428.828 47.8842C427.135 49.576 424.351 49.576 422.658 47.8842C421.473 46.7018 419.526 46.7018 418.341 47.8842C416.648 49.5759 413.864 49.5759 412.171 47.8842C410.987 46.6999 409.039 46.6999 407.855 47.8842C407.732 48.0059 407.567 48.0743 407.394 48.0743C407.035 48.0743 406.739 47.7784 406.739 47.4188C406.739 47.2462 406.807 47.0804 406.928 46.9577C407.746 46.1386 408.856 45.6778 410.013 45.6778C411.17 45.6778 412.28 46.1386 413.098 46.9577C414.283 48.1411 416.23 48.1411 417.416 46.9577C419.109 45.267 421.892 45.267 423.585 46.9577C424.77 48.1411 426.717 48.1411 427.902 46.9577C429.596 45.267 432.378 45.267 434.071 46.9577C435.256 48.1411 437.203 48.1411 438.387 46.9577C440.082 45.2671 442.864 45.2671 444.558 46.9577C445.742 48.1421 447.69 48.1421 448.874 46.9577C448.997 46.8333 449.165 46.7633 449.34 46.7633C449.699 46.7633 449.995 47.0592 449.995 47.4188C449.995 47.5935 449.925 47.7613 449.801 47.8842C448.984 48.7033 447.873 49.1642 446.716 49.1642C445.559 49.1642 444.448 48.7033 443.631 47.8842H443.631ZM443.631 41.3256C442.447 40.1412 440.499 40.1412 439.315 41.3256C437.621 43.0165 434.838 43.0165 433.144 41.3256C431.96 40.1412 430.012 40.1412 428.828 41.3256C427.134 43.0165 424.352 43.0165 422.658 41.3256C421.474 40.1414 419.526 40.1414 418.341 41.3256C416.647 43.0164 413.865 43.0164 412.171 41.3256C411.599 40.7521 410.823 40.4294 410.013 40.4294C409.204 40.4294 408.427 40.7521 407.855 41.3256C407.732 41.4466 407.567 41.5146 407.395 41.5146C407.035 41.5146 406.739 41.2184 406.739 40.8585C406.739 40.6859 406.807 40.52 406.928 40.3973C407.746 39.5782 408.856 39.1174 410.013 39.1174C411.17 39.1174 412.28 39.5782 413.098 40.3973C414.283 41.5806 416.23 41.5806 417.416 40.3973C419.109 38.7064 421.892 38.7064 423.585 40.3973C424.77 41.5806 426.717 41.5806 427.902 40.3973C429.595 38.7064 432.378 38.7064 434.071 40.3973C435.256 41.5806 437.203 41.5806 438.387 40.3973C440.082 38.7065 442.864 38.7065 444.558 40.3973C445.742 41.5816 447.69 41.5816 448.874 40.3973C448.997 40.2726 449.166 40.2023 449.341 40.2023C449.7 40.2023 449.996 40.4985 449.996 40.8585C449.996 41.034 449.926 41.2024 449.801 41.3256C448.983 42.1447 447.873 42.6054 446.716 42.6054C445.559 42.6054 444.449 42.1447 443.631 41.3256H443.631ZM443.631 34.764C442.446 33.5807 440.499 33.5807 439.315 34.764C437.621 36.4549 434.838 36.4549 433.144 34.764C431.959 33.5807 430.012 33.5807 428.828 34.764C427.134 36.4549 424.352 36.4549 422.658 34.764C421.473 33.5807 419.526 33.5807 418.341 34.764C416.647 36.4548 413.865 36.4548 412.171 34.764C410.987 33.5796 409.039 33.5796 407.855 34.764C407.732 34.8857 407.567 34.954 407.394 34.954C407.035 34.954 406.739 34.6581 406.739 34.2985C406.739 34.126 406.807 33.9602 406.928 33.8375C407.746 33.0184 408.856 32.5576 410.013 32.5576C411.17 32.5576 412.28 33.0184 413.098 33.8375C414.283 35.0208 416.23 35.0208 417.416 33.8375C419.109 32.1467 421.892 32.1467 423.585 33.8375C424.77 35.0208 426.717 35.0208 427.902 33.8375C429.596 32.1467 432.378 32.1467 434.071 33.8375C435.256 35.0208 437.203 35.0208 438.387 33.8375C440.082 32.1468 442.864 32.1468 444.558 33.8375C445.129 34.4122 445.907 34.7345 446.716 34.7319C447.526 34.7345 448.303 34.4121 448.874 33.8375C448.997 33.7131 449.165 33.643 449.34 33.643C449.699 33.643 449.995 33.9389 449.995 34.2985C449.995 34.4733 449.925 34.641 449.801 34.764C448.985 35.5854 447.873 36.0466 446.716 36.0439C445.558 36.0462 444.447 35.585 443.631 34.764Z" fill="#CEE2FF"/>
<path fill-rule="evenodd" clip-rule="evenodd" d="M443.521 48.1538H443.519C443.519 48.1538 443.444 48.0784 443.441 48.0751L443.44 48.0749C442.36 46.9969 440.585 46.9972 439.505 48.0751C437.707 49.8713 434.752 49.8713 432.953 48.0751C431.873 46.997 430.098 46.997 429.018 48.075C427.221 49.8713 424.265 49.8713 422.468 48.0751C421.387 46.9969 419.612 46.9969 418.532 48.075C416.734 49.8711 413.779 49.8711 411.981 48.075C410.901 46.9951 409.125 46.9951 408.045 48.0753L408.045 48.0757C407.872 48.2474 407.638 48.344 407.394 48.344C406.887 48.344 406.47 47.9263 406.47 47.4187C406.47 47.1751 406.566 46.9411 406.737 46.7675L406.738 46.7671C407.606 45.8974 408.785 45.4081 410.013 45.4081C411.241 45.4081 412.421 45.8974 413.288 46.7668C414.369 47.8458 416.145 47.8458 417.225 46.7668C419.023 44.9717 421.978 44.9717 423.776 46.7668C424.856 47.8458 426.631 47.8458 427.712 46.7668C429.51 44.9717 432.464 44.9718 434.262 46.7668C435.342 47.8458 437.117 47.8458 438.197 46.7668C439.996 44.9718 442.95 44.9719 444.749 46.7669C445.828 47.8468 447.604 47.8468 448.683 46.7679C448.856 46.5925 449.093 46.4936 449.34 46.4936C449.847 46.4936 450.264 46.9113 450.264 47.4187C450.264 47.6655 450.166 47.9021 449.992 48.0748C449.124 48.9446 447.944 49.4339 446.716 49.4339C445.525 49.4339 444.381 48.9742 443.521 48.1538ZM443.76 47.8418C443.76 47.8425 443.759 47.8433 443.759 47.8441L443.822 47.6937C444.589 48.4622 445.631 48.8945 446.716 48.8945C447.801 48.8945 448.843 48.4622 449.611 47.6932L449.611 47.6928C449.684 47.6203 449.725 47.5217 449.725 47.4187C449.725 47.2071 449.551 47.033 449.34 47.033C449.237 47.033 449.138 47.0742 449.065 47.148L449.065 47.1483C447.776 48.4374 445.656 48.4374 444.368 47.1486C442.779 45.5622 440.167 45.5622 438.578 47.1485C437.289 48.4363 435.17 48.4363 433.881 47.1486C432.292 45.5622 429.681 45.5622 428.092 47.1486C426.803 48.4362 424.684 48.4362 423.395 47.1486C421.806 45.5622 419.195 45.5622 417.606 47.1486C416.316 48.4363 414.197 48.4363 412.907 47.1485L412.907 47.1482C412.14 46.3797 411.098 45.9475 410.013 45.9475C408.928 45.9475 407.887 46.3796 407.12 47.1477C407.048 47.2198 407.008 47.3173 407.008 47.4187C407.008 47.6305 407.182 47.8046 407.394 47.8046C407.496 47.8046 407.593 47.7644 407.665 47.6928C408.954 46.4044 411.073 46.4047 412.361 47.6934C413.95 49.2806 416.562 49.2806 418.151 47.6933C419.441 46.4065 421.559 46.4065 422.849 47.6933C424.437 49.2808 427.049 49.2808 428.637 47.6933C429.927 46.4066 432.045 46.4066 433.334 47.6933C434.923 49.2808 437.535 49.2808 439.125 47.6933C440.414 46.4066 442.532 46.4065 443.821 47.6933L443.76 47.8418ZM443.521 41.5952H443.519C443.519 41.5952 443.441 41.5169 443.44 41.5162C442.361 40.4363 440.585 40.4365 439.505 41.5165C437.707 43.3116 434.752 43.3116 432.953 41.5164C431.874 40.4365 430.098 40.4365 429.018 41.5164C427.22 43.3116 424.266 43.3116 422.468 41.5164C421.388 40.4366 419.612 40.4366 418.532 41.5165C416.733 43.3115 413.779 43.3116 411.981 41.5162L411.98 41.516C411.459 40.9932 410.751 40.699 410.013 40.699C409.275 40.699 408.567 40.9932 408.045 41.5168L408.044 41.5175C407.871 41.6884 407.638 41.7842 407.395 41.7842C406.887 41.7842 406.47 41.3664 406.47 40.8584C406.47 40.6148 406.566 40.3809 406.737 40.2072L406.738 40.2067C407.606 39.337 408.785 38.8477 410.013 38.8477C411.241 38.8477 412.421 39.337 413.288 40.2063C414.369 41.2853 416.145 41.2853 417.225 40.2063C419.023 38.4111 421.978 38.4111 423.776 40.2063C424.856 41.2853 426.631 41.2853 427.712 40.2063C429.51 38.4111 432.464 38.4111 434.262 40.2063C435.342 41.2853 437.117 41.2853 438.197 40.2063C439.996 38.4112 442.95 38.4112 444.749 40.2064C445.828 41.2864 447.604 41.2864 448.683 40.2077C448.856 40.0317 449.094 39.9327 449.341 39.9327C449.848 39.9327 450.266 40.3505 450.266 40.8584C450.266 41.1055 450.167 41.3427 449.992 41.5165C449.123 42.386 447.944 42.8751 446.716 42.8751C445.525 42.8751 444.381 42.4155 443.521 41.5952ZM443.759 41.2843C443.759 41.2847 443.759 41.2851 443.759 41.2855L443.822 41.135C444.589 41.9035 445.631 42.3357 446.716 42.3357C447.801 42.3357 448.843 41.9035 449.611 41.1343L449.612 41.1336C449.686 41.061 449.727 40.9619 449.727 40.8584C449.727 40.6464 449.553 40.4719 449.341 40.4719C449.238 40.4719 449.139 40.5133 449.065 40.5874L449.065 40.5879C447.776 41.877 445.656 41.877 444.368 40.5882C442.779 39.0016 440.167 39.0016 438.578 40.588C437.289 41.8758 435.17 41.8758 433.881 40.5882C432.292 39.0016 429.681 39.0016 428.092 40.5882C426.803 41.8757 424.684 41.8757 423.395 40.5882C421.806 39.0016 419.195 39.0016 417.606 40.5882C416.316 41.8758 414.197 41.8758 412.907 40.588L412.907 40.5878C412.14 39.8193 411.098 39.3871 410.013 39.3871C408.928 39.3871 407.887 39.819 407.12 40.5871C407.049 40.6594 407.009 40.757 407.009 40.8584C407.009 41.0705 407.183 41.2449 407.395 41.2449C407.496 41.2449 407.593 41.2049 407.666 41.1339C408.288 40.5104 409.133 40.1596 410.013 40.1596C410.894 40.1596 411.74 40.5109 412.361 41.1347C413.951 42.7211 416.562 42.7211 418.151 41.1348C419.44 39.8461 421.56 39.8461 422.848 41.1347C424.438 42.7212 427.048 42.7212 428.637 41.1349C429.926 39.8458 432.046 39.8458 433.334 41.1347C434.924 42.7212 437.535 42.7212 439.124 41.1349C440.413 39.8458 442.533 39.8458 443.821 41.1349L443.759 41.2843ZM443.44 34.9548C442.36 33.8759 440.585 33.8759 439.505 34.9549C437.707 36.75 434.752 36.75 432.953 34.9549C431.873 33.8759 430.098 33.8759 429.018 34.9549C427.22 36.7501 424.266 36.7501 422.468 34.9549C421.387 33.8759 419.612 33.8759 418.532 34.9549C416.733 36.75 413.779 36.7499 411.981 34.9548C410.901 33.8748 409.125 33.8748 408.045 34.955L408.045 34.9554C407.872 35.1272 407.638 35.2237 407.394 35.2237C406.887 35.2237 406.47 34.806 406.47 34.2985C406.47 34.0549 406.566 33.8209 406.737 33.6473L406.738 33.6469C407.606 32.7772 408.785 32.2879 410.013 32.2879C411.241 32.2879 412.421 32.7772 413.288 33.6465C414.369 34.7255 416.145 34.7255 417.225 33.6465C419.023 31.8514 421.978 31.8514 423.776 33.6465C424.856 34.7255 426.631 34.7255 427.712 33.6465C429.51 31.8514 432.464 31.8516 434.262 33.6465C435.342 34.7255 437.117 34.7255 438.197 33.6465C439.996 31.8516 442.95 31.8516 444.749 33.6469L444.75 33.6474C445.269 34.1709 445.978 34.4646 446.716 34.4622H446.717C447.455 34.4646 448.163 34.1709 448.683 33.6477C448.856 33.4723 449.093 33.3734 449.34 33.3734C449.847 33.3734 450.264 33.7911 450.264 34.2985C450.264 34.5446 450.166 34.7808 449.992 34.9544C449.125 35.8266 447.945 36.3162 446.716 36.3135C445.487 36.3158 444.307 35.8263 443.44 34.9548ZM443.822 34.5738C444.587 35.3439 445.63 35.7763 446.716 35.7743H446.717C447.802 35.7767 448.845 35.3443 449.611 34.5732L449.611 34.5725C449.684 34.5 449.725 34.4014 449.725 34.2985C449.725 34.0869 449.551 33.9128 449.34 33.9128C449.237 33.9128 449.138 33.9539 449.066 34.0273L449.065 34.0276C448.444 34.653 447.597 35.0041 446.716 35.0015C445.835 35.0042 444.989 34.6534 444.368 34.0282C442.778 32.4419 440.167 32.4421 438.578 34.0282C437.289 35.316 435.17 35.316 433.881 34.0284C432.292 32.4419 429.681 32.4419 428.092 34.0284C426.803 35.3159 424.684 35.3159 423.395 34.0284C421.806 32.4419 419.195 32.4419 417.606 34.0284C416.316 35.316 414.197 35.316 412.907 34.0282L412.907 34.028C412.14 33.2595 411.098 32.8273 410.013 32.8273C408.928 32.8273 407.887 33.2594 407.12 34.0275C407.048 34.0996 407.008 34.197 407.008 34.2985C407.008 34.5103 407.182 34.6844 407.394 34.6844C407.496 34.6844 407.593 34.6441 407.665 34.5725C408.954 33.2842 411.073 33.2845 412.361 34.573C413.951 36.1595 416.562 36.1595 418.151 34.573C419.44 33.2854 421.559 33.2854 422.848 34.573C424.438 36.1596 427.048 36.1596 428.637 34.5732C429.926 33.2854 432.045 33.2854 433.334 34.573C434.924 36.1596 437.535 36.1596 439.124 34.5732C440.413 33.2854 442.532 33.2854 443.821 34.5734L443.822 34.5738Z" fill="#CEE2FF"/>
<path d="M318.329 154.672C324.232 154.672 329.017 149.883 329.017 143.975C329.017 138.067 324.232 133.278 318.329 133.278C312.426 133.278 307.64 138.067 307.64 143.975C307.64 149.883 312.426 154.672 318.329 154.672Z" fill="#67985C"/>
<path d="M326.477 144.212C332.38 144.212 337.165 139.423 337.165 133.515C337.165 127.607 332.38 122.818 326.477 122.818C320.573 122.818 315.788 127.607 315.788 133.515C315.788 139.423 320.573 144.212 326.477 144.212Z" fill="#67985C"/>
<path d="M343.423 156.634C349.326 156.634 354.112 151.845 354.112 145.937C354.112 140.029 349.326 135.24 343.423 135.24C337.52 135.24 332.734 140.029 332.734 145.937C332.734 151.845 337.52 156.634 343.423 156.634Z" fill="#67985C"/>
<path d="M330.76 154.542C336.663 154.542 341.448 149.753 341.448 143.845C341.448 137.937 336.663 133.148 330.76 133.148C324.857 133.148 320.071 137.937 320.071 143.845C320.071 149.753 324.857 154.542 330.76 154.542Z" fill="#67985C"/>
<path d="M338.062 145.095C343.965 145.095 348.751 140.306 348.751 134.398C348.751 128.49 343.965 123.701 338.062 123.701C332.159 123.701 327.374 128.49 327.374 134.398C327.374 140.306 332.159 145.095 338.062 145.095Z" fill="#67985C"/>
<path d="M330.269 183.937V159.503" stroke="#0B3000" stroke-width="5" stroke-miterlimit="1.5" stroke-linecap="round" stroke-linejoin="round"/>
<path d="M329.962 158.908L320.617 149.633" stroke="#0B3000" stroke-width="5" stroke-miterlimit="1.5" stroke-linecap="round" stroke-linejoin="round"/>
<path d="M330.444 159.429L339.789 150.154" stroke="#0B3000" stroke-width="5" stroke-miterlimit="1.5" stroke-linecap="round" stroke-linejoin="round"/>
<path d="M102.62 147.04C108.523 147.04 113.309 142.251 113.309 136.343C113.309 130.435 108.523 125.646 102.62 125.646C96.7168 125.646 91.9313 130.435 91.9313 136.343C91.9313 142.251 96.7168 147.04 102.62 147.04Z" fill="#67985C"/>
<path d="M110.768 136.58C116.671 136.58 121.457 131.791 121.457 125.883C121.457 119.975 116.671 115.186 110.768 115.186C104.865 115.186 100.079 119.975 100.079 125.883C100.079 131.791 104.865 136.58 110.768 136.58Z" fill="#67985C"/>
<path d="M127.714 149.002C133.618 149.002 138.403 144.213 138.403 138.305C138.403 132.397 133.618 127.608 127.714 127.608C121.811 127.608 117.026 132.397 117.026 138.305C117.026 144.213 121.811 149.002 127.714 149.002Z" fill="#67985C"/>
<path d="M115.051 146.91C120.954 146.91 125.74 142.121 125.74 136.213C125.74 130.305 120.954 125.516 115.051 125.516C109.148 125.516 104.362 130.305 104.362 136.213C104.362 142.121 109.148 146.91 115.051 146.91Z" fill="#67985C"/>
<path d="M122.354 137.463C128.257 137.463 133.042 132.674 133.042 126.766C133.042 120.858 128.257 116.069 122.354 116.069C116.45 116.069 111.665 120.858 111.665 126.766C111.665 132.674 116.45 137.463 122.354 137.463Z" fill="#67985C"/>
<path d="M13.4617 244.043C17.8325 244.043 21.3757 240.497 21.3757 236.123C21.3757 231.749 17.8325 228.203 13.4617 228.203C9.09101 228.203 5.54782 231.749 5.54782 236.123C5.54782 240.497 9.09101 244.043 13.4617 244.043Z" fill="#67985C"/>
<path d="M17.833 237.2C22.2037 237.2 25.7469 233.654 25.7469 229.28C25.7469 224.906 22.2037 221.36 17.833 221.36C13.4623 221.36 9.91907 224.906 9.91907 229.28C9.91907 233.654 13.4623 237.2 17.833 237.2Z" fill="#67985C"/>
<path d="M31.9335 244.071C36.3043 244.071 39.8474 240.525 39.8474 236.151C39.8474 231.777 36.3043 228.231 31.9335 228.231C27.5628 228.231 24.0196 231.777 24.0196 236.151C24.0196 240.525 27.5628 244.071 31.9335 244.071Z" fill="#67985C"/>
<path d="M22.4486 243.997C26.8193 243.997 30.3625 240.451 30.3625 236.077C30.3625 231.703 26.8193 228.157 22.4486 228.157C18.0779 228.157 14.5347 231.703 14.5347 236.077C14.5347 240.451 18.0779 243.997 22.4486 243.997Z" fill="#67985C"/>
<path d="M28.1467 236.94C32.5175 236.94 36.0607 233.394 36.0607 229.019C36.0607 224.645 32.5175 221.099 28.1467 221.099C23.776 221.099 20.2328 224.645 20.2328 229.019C20.2328 233.394 23.776 236.94 28.1467 236.94Z" fill="#67985C"/>
<path d="M114.561 176.305V151.871" stroke="#0B3000" stroke-width="5" stroke-miterlimit="1.5" stroke-linecap="round" stroke-linejoin="round"/>
<path d="M114.253 151.276L104.908 142.001" stroke="#0B3000" stroke-width="5" stroke-miterlimit="1.5" stroke-linecap="round" stroke-linejoin="round"/>
<path d="M114.735 151.797L124.08 142.521" stroke="#0B3000" stroke-width="5" stroke-miterlimit="1.5" stroke-linecap="round" stroke-linejoin="round"/>
<path d="M372.392 154.267C378.295 154.267 383.08 149.478 383.08 143.57C383.08 137.662 378.295 132.873 372.392 132.873C366.488 132.873 361.703 137.662 361.703 143.57C361.703 149.478 366.488 154.267 372.392 154.267Z" fill="#67985C"/>
<path d="M380.54 143.807C386.443 143.807 391.228 139.018 391.228 133.11C391.228 127.202 386.443 122.413 380.54 122.413C374.636 122.413 369.851 127.202 369.851 133.11C369.851 139.018 374.636 143.807 380.54 143.807Z" fill="#67985C"/>
<path d="M397.486 156.229C403.389 156.229 408.175 151.44 408.175 145.532C408.175 139.624 403.389 134.835 397.486 134.835C391.583 134.835 386.797 139.624 386.797 145.532C386.797 151.44 391.583 156.229 397.486 156.229Z" fill="#67985C"/>
<path d="M384.823 154.137C390.726 154.137 395.511 149.348 395.511 143.44C395.511 137.532 390.726 132.743 384.823 132.743C378.919 132.743 374.134 137.532 374.134 143.44C374.134 149.348 378.919 154.137 384.823 154.137Z" fill="#67985C"/>
<path d="M392.125 144.691C398.028 144.691 402.814 139.901 402.814 133.994C402.814 128.086 398.028 123.296 392.125 123.296C386.222 123.296 381.436 128.086 381.436 133.994C381.436 139.901 386.222 144.691 392.125 144.691Z" fill="#67985C"/>
<path d="M384.332 183.532V159.098" stroke="#0B3000" stroke-width="5" stroke-miterlimit="1.5" stroke-linecap="round" stroke-linejoin="round"/>
<path d="M384.024 158.503L374.68 149.228" stroke="#0B3000" stroke-width="5" stroke-miterlimit="1.5" stroke-linecap="round" stroke-linejoin="round"/>
<path d="M384.506 159.024L393.851 149.749" stroke="#0B3000" stroke-width="5" stroke-miterlimit="1.5" stroke-linecap="round" stroke-linejoin="round"/>
<path d="M532.121 31.8546C538.024 31.8546 542.81 27.0653 542.81 21.1574C542.81 15.2495 538.024 10.4603 532.121 10.4603C526.218 10.4603 521.432 15.2495 521.432 21.1574C521.432 27.0653 526.218 31.8546 532.121 31.8546Z" fill="#67985C"/>
<path d="M540.269 21.3943C546.172 21.3943 550.958 16.605 550.958 10.6971C550.958 4.78928 546.172 0 540.269 0C534.366 0 529.58 4.78928 529.58 10.6971C529.58 16.605 534.366 21.3943 540.269 21.3943Z" fill="#67985C"/>
<path d="M557.215 33.8165C563.118 33.8165 567.904 29.0273 567.904 23.1194C567.904 17.2115 563.118 12.4222 557.215 12.4222C551.312 12.4222 546.527 17.2115 546.527 23.1194C546.527 29.0273 551.312 33.8165 557.215 33.8165Z" fill="#67985C"/>
<path d="M544.552 31.7245C550.455 31.7245 555.241 26.9352 555.241 21.0273C555.241 15.1195 550.455 10.3302 544.552 10.3302C538.649 10.3302 533.863 15.1195 533.863 21.0273C533.863 26.9352 538.649 31.7245 544.552 31.7245Z" fill="#67985C"/>
<path d="M551.855 22.2777C557.758 22.2777 562.543 17.4884 562.543 11.5805C562.543 5.67264 557.758 0.883362 551.855 0.883362C545.951 0.883362 541.166 5.67264 541.166 11.5805C541.166 17.4884 545.951 22.2777 551.855 22.2777Z" fill="#67985C"/>
<path d="M544.061 61.119V36.6855" stroke="#0B3000" stroke-width="5" stroke-miterlimit="1.5" stroke-linecap="round" stroke-linejoin="round"/>
<path d="M543.754 36.0906L534.409 26.8152" stroke="#0B3000" stroke-width="5" stroke-miterlimit="1.5" stroke-linecap="round" stroke-linejoin="round"/>
<path d="M544.236 36.6113L553.581 27.3359" stroke="#0B3000" stroke-width="5" stroke-miterlimit="1.5" stroke-linecap="round" stroke-linejoin="round"/>
<path d="M702.01 300.895C707.913 300.895 712.698 296.106 712.698 290.198C712.698 284.29 707.913 279.501 702.01 279.501C696.106 279.501 691.321 284.29 691.321 290.198C691.321 296.106 696.106 300.895 702.01 300.895Z" fill="#67985C"/>
<path d="M710.158 290.435C716.061 290.435 720.846 285.645 720.846 279.738C720.846 273.83 716.061 269.04 710.158 269.04C704.254 269.04 699.469 273.83 699.469 279.738C699.469 285.645 704.254 290.435 710.158 290.435Z" fill="#67985C"/>
<path d="M727.104 302.857C733.007 302.857 737.793 298.068 737.793 292.16C737.793 286.252 733.007 281.463 727.104 281.463C721.201 281.463 716.415 286.252 716.415 292.16C716.415 298.068 721.201 302.857 727.104 302.857Z" fill="#67985C"/>
<path d="M714.441 300.765C720.344 300.765 725.129 295.976 725.129 290.068C725.129 284.16 720.344 279.37 714.441 279.37C708.538 279.37 703.752 284.16 703.752 290.068C703.752 295.976 708.538 300.765 714.441 300.765Z" fill="#67985C"/>
<path d="M721.743 291.318C727.646 291.318 732.432 286.529 732.432 280.621C732.432 274.713 727.646 269.924 721.743 269.924C715.84 269.924 711.055 274.713 711.055 280.621C711.055 286.529 715.84 291.318 721.743 291.318Z" fill="#67985C"/>
<path d="M713.95 330.159V305.726" stroke="#0B3000" stroke-width="5" stroke-miterlimit="1.5" stroke-linecap="round" stroke-linejoin="round"/>
<path d="M713.642 305.131L704.298 295.855" stroke="#0B3000" stroke-width="5" stroke-miterlimit="1.5" stroke-linecap="round" stroke-linejoin="round"/>
<path d="M714.125 305.652L723.469 296.376" stroke="#0B3000" stroke-width="5" stroke-miterlimit="1.5" stroke-linecap="round" stroke-linejoin="round"/>
<path fill-rule="evenodd" clip-rule="evenodd" d="M170.938 286.611L85.6168 372V286.611H170.938Z" fill="#CEE2FF"/>
<path fill-rule="evenodd" clip-rule="evenodd" d="M85.6172 371.996L170.939 286.607V371.996H85.6172Z" fill="#73ACFF"/>
<path fill-rule="evenodd" clip-rule="evenodd" d="M316.628 269.315L401.949 183.926V269.315H316.628Z" fill="#2A468A"/>
<path fill-rule="evenodd" clip-rule="evenodd" d="M608.039 114.524L693.36 29.1345V114.524L608.039 114.524Z" fill="#2A468A"/>
<path fill-rule="evenodd" clip-rule="evenodd" d="M401.949 183.928L316.628 269.317V183.928H401.949Z" fill="#73ACFF"/>
<path fill-rule="evenodd" clip-rule="evenodd" d="M361.217 330.373L446.538 244.984V330.373H361.217Z" fill="#CEE2FF"/>
<path fill-rule="evenodd" clip-rule="evenodd" d="M447.368 244.06L532.689 158.671V244.06H447.368Z" fill="#73ACFF"/>
<path fill-rule="evenodd" clip-rule="evenodd" d="M505.978 185.164L532.753 158.368V185.164H505.978Z" fill="#E0E0E0"/>
<path fill-rule="evenodd" clip-rule="evenodd" d="M446.568 330.373L531.89 244.984V330.373H446.568Z" fill="#CEE2FF"/>
<path fill-rule="evenodd" clip-rule="evenodd" d="M702.194 330.373L616.873 244.984V330.373H702.194Z" fill="#73ACFF"/>
<path fill-rule="evenodd" clip-rule="evenodd" d="M617.97 244.06L532.649 158.671V244.06H617.97Z" fill="#CEE2FF"/>
<path fill-rule="evenodd" clip-rule="evenodd" d="M559.247 185.164L532.472 158.368V185.164H559.247Z" fill="#E0E0E0"/>
<path fill-rule="evenodd" clip-rule="evenodd" d="M188.725 331.035L274.046 245.646V331.035H188.725Z" fill="#73ACFF"/>
<path fill-rule="evenodd" clip-rule="evenodd" d="M247.338 272.14L274.113 245.343V272.14H247.338Z" fill="#E0E0E0"/>
<path fill-rule="evenodd" clip-rule="evenodd" d="M359.33 331.035L274.009 245.646V331.035H359.33Z" fill="#CEE2FF"/>
<path fill-rule="evenodd" clip-rule="evenodd" d="M300.607 272.14L273.832 245.343V272.14H300.607Z" fill="#E0E0E0"/>
<path fill-rule="evenodd" clip-rule="evenodd" d="M145.373 175.373L172.149 148.576V175.373H145.373Z" fill="#FBC098"/>
<path fill-rule="evenodd" clip-rule="evenodd" d="M617.084 330.373L531.763 244.984V330.373H617.084Z" fill="#73ACFF"/>
<path d="M577.445 61.8601H534.784V147.25H577.445V61.8601Z" fill="#67985C"/>
<path d="M170.967 286.845V244.15H85.6451V286.845H170.967Z" fill="#67985C"/>
<path d="M85.3221 286.871V244.177H-1.52588e-05V286.871H85.3221Z" fill="#B8EEAB"/>
<path fill-rule="evenodd" clip-rule="evenodd" d="M257.448 132.713L172.126 218.102V132.713H257.448Z" fill="#CEE2FF"/>
<path fill-rule="evenodd" clip-rule="evenodd" d="M172.127 218.101L257.448 132.712V218.101H172.127Z" fill="#73ACFF"/>
<path fill-rule="evenodd" clip-rule="evenodd" d="M257.555 132.867L230.78 106.071V132.867H257.555Z" fill="#E0E0E0"/>
<path d="M172.015 217.797V175.102H86.6926V217.797H172.015Z" fill="#E47E3A"/>
<path d="M450.306 94.4151V51.7203L364.984 51.7203V94.4151H450.306Z" fill="#E47E3A"/>
<path d="M534.732 62.0969H492.071V147.486H534.732V62.0969Z" fill="#B8EEAB"/>
<path d="M225.503 351.641C224.318 350.459 222.372 350.459 221.187 351.641C219.493 353.333 216.709 353.333 215.015 351.641C213.83 350.459 211.884 350.459 210.699 351.641C209.006 353.333 206.223 353.333 204.53 351.641C203.345 350.459 201.398 350.459 200.213 351.641C198.52 353.333 195.736 353.333 194.043 351.641C192.859 350.457 190.911 350.457 189.727 351.641C189.604 351.763 189.438 351.831 189.266 351.831C188.906 351.831 188.611 351.535 188.611 351.176C188.611 351.003 188.679 350.837 188.8 350.715C189.618 349.896 190.728 349.435 191.885 349.435C193.042 349.435 194.152 349.896 194.97 350.715C196.155 351.898 198.102 351.898 199.288 350.715C200.981 349.024 203.763 349.024 205.457 350.715C206.642 351.898 208.589 351.898 209.774 350.715C211.467 349.024 214.25 349.024 215.943 350.715C217.128 351.898 219.075 351.898 220.259 350.715C221.953 349.024 224.736 349.024 226.43 350.715C227.614 351.899 229.562 351.899 230.746 350.715C230.869 350.59 231.037 350.52 231.212 350.52C231.571 350.52 231.867 350.816 231.867 351.176C231.867 351.351 231.797 351.518 231.673 351.641C230.855 352.46 229.745 352.921 228.588 352.921C227.431 352.921 226.32 352.46 225.503 351.641H225.503ZM225.503 345.083C224.319 343.898 222.371 343.898 221.187 345.083C219.492 346.774 216.71 346.774 215.015 345.083C213.831 343.898 211.883 343.898 210.699 345.083C209.006 346.774 206.223 346.774 204.53 345.083C203.346 343.898 201.398 343.898 200.213 345.083C198.519 346.773 195.737 346.773 194.043 345.083C193.471 344.509 192.694 344.186 191.885 344.186C191.075 344.186 190.298 344.509 189.727 345.083C189.604 345.204 189.439 345.272 189.267 345.272C188.907 345.272 188.611 344.975 188.611 344.615C188.611 344.443 188.679 344.277 188.8 344.154C189.618 343.335 190.728 342.874 191.885 342.874C193.042 342.874 194.152 343.335 194.97 344.154C196.155 345.338 198.102 345.338 199.288 344.154C200.981 342.463 203.764 342.463 205.457 344.154C206.642 345.338 208.589 345.338 209.774 344.154C211.467 342.463 214.25 342.463 215.943 344.154C217.128 345.338 219.075 345.338 220.259 344.154C221.953 342.464 224.736 342.464 226.43 344.154C227.614 345.339 229.562 345.339 230.746 344.154C230.869 344.03 231.037 343.959 231.213 343.959C231.572 343.959 231.868 344.256 231.868 344.615C231.868 344.791 231.798 344.959 231.673 345.083C230.855 345.902 229.745 346.362 228.588 346.362C227.431 346.362 226.32 345.902 225.503 345.083H225.503ZM225.503 338.521C224.318 337.338 222.371 337.338 221.187 338.521C219.492 340.212 216.71 340.212 215.015 338.521C213.831 337.338 211.884 337.338 210.699 338.521C209.006 340.212 206.223 340.212 204.53 338.521C203.345 337.338 201.398 337.338 200.213 338.521C198.519 340.212 195.737 340.212 194.043 338.521C192.859 337.337 190.911 337.337 189.727 338.521C189.604 338.643 189.438 338.711 189.266 338.711C188.906 338.711 188.611 338.415 188.611 338.056C188.611 337.883 188.679 337.717 188.8 337.594C189.618 336.775 190.728 336.315 191.885 336.315C193.042 336.315 194.152 336.775 194.97 337.594C196.155 338.778 198.102 338.778 199.288 337.594C200.981 335.904 203.763 335.904 205.457 337.594C206.642 338.778 208.589 338.778 209.774 337.594C211.467 335.904 214.25 335.904 215.943 337.594C217.128 338.778 219.075 338.778 220.259 337.594C221.953 335.904 224.736 335.904 226.43 337.594C227.001 338.169 227.778 338.492 228.588 338.489C229.398 338.492 230.175 338.169 230.746 337.594C230.869 337.47 231.037 337.4 231.212 337.4C231.571 337.4 231.867 337.696 231.867 338.056C231.867 338.23 231.797 338.398 231.673 338.521C230.857 339.342 229.745 339.804 228.588 339.801C227.43 339.803 226.319 339.342 225.503 338.521Z" fill="#2A468A"/>
<path d="M266.997 352.046C265.812 350.864 263.866 350.864 262.681 352.046C260.987 353.738 258.204 353.738 256.51 352.046C255.325 350.864 253.379 350.864 252.194 352.046C250.501 353.738 247.718 353.738 246.025 352.046C244.839 350.864 242.893 350.864 241.708 352.046C240.014 353.738 237.231 353.738 235.537 352.046C234.353 350.862 232.405 350.862 231.221 352.046C231.099 352.168 230.933 352.236 230.76 352.236C230.401 352.236 230.105 351.94 230.105 351.581C230.105 351.408 230.173 351.242 230.295 351.12C231.112 350.3 232.223 349.84 233.38 349.84C234.536 349.84 235.647 350.3 236.464 351.12C237.65 352.303 239.597 352.303 240.782 351.12C242.476 349.429 245.258 349.429 246.952 351.12C248.136 352.303 250.083 352.303 251.268 351.12C252.962 349.429 255.744 349.429 257.438 351.12C258.622 352.303 260.569 352.303 261.754 351.12C263.448 349.429 266.231 349.429 267.925 351.12C269.109 352.304 271.057 352.304 272.241 351.12C272.364 350.995 272.532 350.925 272.706 350.925C273.066 350.925 273.361 351.221 273.361 351.581C273.361 351.755 273.291 351.923 273.167 352.046C272.35 352.865 271.239 353.326 270.082 353.326C268.925 353.326 267.815 352.865 266.997 352.046H266.997ZM266.997 345.487C265.813 344.303 263.865 344.303 262.681 345.487C260.987 347.178 258.204 347.178 256.51 345.487C255.326 344.303 253.378 344.303 252.194 345.487C250.501 347.178 247.718 347.178 246.025 345.487C244.84 344.303 242.892 344.303 241.708 345.487C240.014 347.178 237.231 347.178 235.537 345.487C234.966 344.914 234.189 344.591 233.38 344.591C232.57 344.591 231.793 344.914 231.221 345.487C231.099 345.608 230.933 345.676 230.761 345.676C230.401 345.676 230.106 345.38 230.106 345.02C230.106 344.848 230.174 344.682 230.295 344.559C231.112 343.74 232.223 343.279 233.38 343.279C234.536 343.279 235.647 343.74 236.464 344.559C237.65 345.742 239.597 345.742 240.782 344.559C242.476 342.868 245.258 342.868 246.952 344.559C248.136 345.742 250.083 345.742 251.268 344.559C252.962 342.868 255.744 342.868 257.438 344.559C258.622 345.742 260.569 345.742 261.754 344.559C263.448 342.868 266.231 342.868 267.925 344.559C269.109 345.743 271.057 345.743 272.241 344.559C272.364 344.434 272.532 344.364 272.707 344.364C273.067 344.364 273.363 344.66 273.363 345.02C273.363 345.196 273.292 345.364 273.167 345.487C272.35 346.307 271.239 346.767 270.082 346.767C268.925 346.767 267.815 346.307 266.997 345.487H266.997ZM266.997 338.926C265.813 337.742 263.866 337.742 262.681 338.926C260.987 340.617 258.204 340.617 256.51 338.926C255.325 337.742 253.379 337.742 252.194 338.926C250.501 340.617 247.718 340.617 246.025 338.926C244.84 337.742 242.893 337.742 241.708 338.926C240.014 340.617 237.231 340.617 235.537 338.926C234.353 337.741 232.405 337.741 231.221 338.926C231.099 339.047 230.933 339.116 230.76 339.116C230.401 339.116 230.105 338.82 230.105 338.46C230.105 338.288 230.173 338.122 230.295 337.999C231.112 337.18 232.223 336.719 233.38 336.719C234.536 336.719 235.647 337.18 236.464 337.999C237.65 339.183 239.597 339.183 240.782 337.999C242.476 336.309 245.258 336.309 246.952 337.999C248.136 339.183 250.083 339.183 251.268 337.999C252.962 336.309 255.744 336.309 257.438 337.999C258.622 339.183 260.569 339.183 261.754 337.999C263.448 336.309 266.231 336.309 267.925 337.999C268.495 338.574 269.273 338.896 270.082 338.894C270.892 338.896 271.67 338.574 272.241 337.999C272.364 337.875 272.531 337.805 272.706 337.805C273.065 337.805 273.361 338.101 273.361 338.46C273.361 338.635 273.291 338.803 273.167 338.926C272.351 339.747 271.24 340.208 270.082 340.206C268.925 340.208 267.813 339.747 266.997 338.926Z" fill="#2A468A"/>
<path d="M308.557 352.384C307.372 351.202 305.426 351.202 304.241 352.384C302.547 354.076 299.764 354.076 298.07 352.384C296.885 351.202 294.939 351.202 293.754 352.384C292.061 354.076 289.278 354.076 287.585 352.384C286.399 351.202 284.453 351.202 283.268 352.384C281.574 354.076 278.791 354.076 277.097 352.384C275.913 351.2 273.966 351.2 272.782 352.384C272.659 352.506 272.493 352.574 272.32 352.574C271.961 352.574 271.665 352.278 271.665 351.919C271.665 351.746 271.734 351.58 271.855 351.458C272.672 350.639 273.783 350.178 274.94 350.178C276.096 350.178 277.207 350.639 278.024 351.458C279.21 352.641 281.157 352.641 282.342 351.458C284.036 349.767 286.818 349.767 288.512 351.458C289.696 352.641 291.644 352.641 292.828 351.458C294.522 349.767 297.304 349.767 298.998 351.458C300.182 352.641 302.129 352.641 303.314 351.458C305.008 349.767 307.791 349.767 309.485 351.458C310.669 352.642 312.617 352.642 313.801 351.458C313.924 351.333 314.092 351.263 314.266 351.263C314.626 351.263 314.921 351.559 314.921 351.919C314.921 352.094 314.851 352.261 314.728 352.384C313.91 353.203 312.799 353.664 311.642 353.664C310.485 353.664 309.375 353.203 308.557 352.384H308.557ZM308.557 345.826C307.373 344.641 305.425 344.641 304.241 345.826C302.547 347.517 299.764 347.517 298.07 345.826C296.886 344.641 294.938 344.641 293.754 345.826C292.061 347.517 289.278 347.517 287.585 345.826C286.4 344.641 284.452 344.641 283.268 345.826C281.574 347.516 278.791 347.516 277.097 345.826C276.526 345.252 275.749 344.929 274.94 344.929C274.13 344.929 273.353 345.252 272.782 345.826C272.659 345.947 272.493 346.015 272.321 346.015C271.962 346.015 271.666 345.718 271.666 345.359C271.666 345.186 271.734 345.02 271.855 344.897C272.672 344.078 273.783 343.617 274.94 343.617C276.096 343.617 277.207 344.078 278.024 344.897C279.21 346.081 281.157 346.081 282.342 344.897C284.036 343.206 286.818 343.206 288.512 344.897C289.696 346.081 291.644 346.081 292.828 344.897C294.522 343.206 297.304 343.206 298.998 344.897C300.182 346.081 302.129 346.081 303.314 344.897C305.008 343.207 307.791 343.207 309.485 344.897C310.669 346.082 312.617 346.082 313.801 344.897C313.924 344.773 314.092 344.702 314.267 344.702C314.627 344.702 314.923 344.999 314.923 345.359C314.923 345.534 314.852 345.702 314.728 345.826C313.91 346.645 312.799 347.105 311.642 347.105C310.485 347.105 309.375 346.645 308.557 345.826H308.557ZM308.557 339.264C307.373 338.081 305.426 338.081 304.241 339.264C302.547 340.955 299.764 340.955 298.07 339.264C296.885 338.081 294.939 338.081 293.754 339.264C292.061 340.955 289.278 340.955 287.585 339.264C286.4 338.081 284.453 338.081 283.268 339.264C281.574 340.955 278.791 340.955 277.097 339.264C275.913 338.08 273.966 338.08 272.782 339.264C272.659 339.386 272.493 339.454 272.32 339.454C271.961 339.454 271.665 339.158 271.665 338.799C271.665 338.626 271.734 338.46 271.855 338.338C272.672 337.518 273.783 337.058 274.94 337.058C276.096 337.058 277.207 337.518 278.024 338.338C279.21 339.521 281.157 339.521 282.342 338.338C284.036 336.647 286.818 336.647 288.512 338.338C289.696 339.521 291.644 339.521 292.828 338.338C294.522 336.647 297.304 336.647 298.998 338.338C300.182 339.521 302.129 339.521 303.314 338.338C305.008 336.647 307.791 336.647 309.485 338.338C310.055 338.912 310.833 339.235 311.643 339.232C312.452 339.235 313.23 338.912 313.801 338.338C313.924 338.213 314.091 338.143 314.266 338.143C314.625 338.143 314.921 338.439 314.921 338.799C314.921 338.973 314.851 339.141 314.727 339.264C313.911 340.085 312.8 340.547 311.642 340.544C310.485 340.546 309.373 340.085 308.557 339.264Z" fill="#2A468A"/>
<path d="M350.052 352.789C348.867 351.607 346.921 351.607 345.736 352.789C344.042 354.481 341.258 354.481 339.565 352.789C338.38 351.607 336.434 351.607 335.249 352.789C333.556 354.481 330.772 354.481 329.079 352.789C327.894 351.607 325.948 351.607 324.762 352.789C323.069 354.481 320.285 354.481 318.592 352.789C317.408 351.605 315.46 351.605 314.276 352.789C314.154 352.911 313.988 352.979 313.815 352.979C313.456 352.979 313.16 352.683 313.16 352.324C313.16 352.151 313.228 351.985 313.349 351.863C314.167 351.044 315.277 350.583 316.434 350.583C317.591 350.583 318.701 351.044 319.519 351.863C320.704 353.046 322.651 353.046 323.837 351.863C325.53 350.172 328.313 350.172 330.006 351.863C331.191 353.046 333.138 353.046 334.323 351.863C336.017 350.172 338.799 350.172 340.492 351.863C341.677 353.046 343.624 353.046 344.808 351.863C346.503 350.172 349.285 350.172 350.98 351.863C352.163 353.047 354.111 353.047 355.295 351.863C355.418 351.738 355.586 351.668 355.761 351.668C356.12 351.668 356.416 351.964 356.416 352.324C356.416 352.498 356.346 352.666 356.222 352.789C355.405 353.608 354.294 354.069 353.137 354.069C351.98 354.069 350.869 353.608 350.052 352.789H350.052ZM350.052 346.231C348.868 345.046 346.92 345.046 345.736 346.231C344.042 347.921 341.259 347.921 339.565 346.231C338.381 345.046 336.433 345.046 335.249 346.231C333.555 347.921 330.773 347.921 329.079 346.231C327.895 345.046 325.947 345.046 324.762 346.231C323.068 347.921 320.286 347.921 318.592 346.231C318.021 345.657 317.244 345.334 316.434 345.334C315.625 345.334 314.848 345.657 314.276 346.231C314.154 346.352 313.988 346.42 313.816 346.42C313.456 346.42 313.16 346.123 313.16 345.763C313.16 345.591 313.228 345.425 313.349 345.302C314.167 344.483 315.277 344.022 316.434 344.022C317.591 344.022 318.701 344.483 319.519 345.302C320.704 346.486 322.651 346.486 323.837 345.302C325.53 343.611 328.313 343.611 330.006 345.302C331.191 346.486 333.138 346.486 334.323 345.302C336.016 343.611 338.799 343.611 340.492 345.302C341.677 346.486 343.624 346.486 344.808 345.302C346.503 343.611 349.285 343.611 350.98 345.302C352.163 346.487 354.111 346.487 355.295 345.302C355.419 345.178 355.587 345.107 355.762 345.107C356.121 345.107 356.417 345.403 356.417 345.763C356.417 345.939 356.347 346.107 356.222 346.231C355.404 347.05 354.294 347.51 353.137 347.51C351.98 347.51 350.87 347.05 350.052 346.231H350.052ZM350.052 339.669C348.867 338.486 346.92 338.486 345.736 339.669C344.042 341.36 341.259 341.36 339.565 339.669C338.38 338.486 336.433 338.486 335.249 339.669C333.555 341.36 330.773 341.36 329.079 339.669C327.894 338.486 325.947 338.486 324.762 339.669C323.068 341.36 320.286 341.36 318.592 339.669C317.408 338.485 315.46 338.485 314.276 339.669C314.154 339.791 313.988 339.859 313.815 339.859C313.456 339.859 313.16 339.563 313.16 339.204C313.16 339.031 313.228 338.865 313.349 338.742C314.167 337.923 315.277 337.463 316.434 337.463C317.591 337.463 318.701 337.923 319.519 338.742C320.704 339.926 322.651 339.926 323.837 338.742C325.53 337.052 328.313 337.052 330.006 338.742C331.191 339.926 333.138 339.926 334.323 338.742C336.017 337.052 338.799 337.052 340.492 338.742C341.677 339.926 343.624 339.926 344.808 338.742C346.503 337.052 349.285 337.052 350.98 338.742C351.55 339.317 352.328 339.639 353.137 339.637C353.947 339.639 354.725 339.317 355.295 338.742C355.418 338.618 355.586 338.548 355.761 338.548C356.12 338.548 356.416 338.844 356.416 339.204C356.416 339.378 356.346 339.546 356.222 339.669C355.406 340.49 354.294 340.952 353.137 340.949C351.98 340.951 350.868 340.49 350.052 339.669Z" fill="#2A468A"/>
<path d="M209.978 127.842C208.793 126.659 206.847 126.659 205.662 127.842C203.969 129.534 201.185 129.534 199.491 127.842C198.306 126.659 196.36 126.659 195.175 127.842C193.482 129.534 190.699 129.534 189.006 127.842C187.82 126.659 185.874 126.659 184.689 127.842C182.995 129.533 180.212 129.533 178.519 127.842C177.335 126.657 175.387 126.657 174.203 127.842C174.08 127.963 173.914 128.032 173.741 128.032C173.382 128.032 173.086 127.736 173.086 127.376C173.086 127.204 173.155 127.038 173.276 126.915C174.093 126.096 175.204 125.635 176.361 125.635C177.517 125.635 178.628 126.096 179.445 126.915C180.631 128.099 182.578 128.099 183.763 126.915C185.457 125.225 188.239 125.225 189.933 126.915C191.118 128.099 193.065 128.099 194.25 126.915C195.943 125.225 198.725 125.225 200.419 126.915C201.603 128.099 203.55 128.099 204.735 126.915C206.429 125.225 209.212 125.225 210.906 126.915C212.09 128.1 214.038 128.1 215.222 126.915C215.345 126.791 215.513 126.721 215.687 126.721C216.047 126.721 216.342 127.017 216.342 127.376C216.342 127.551 216.273 127.719 216.149 127.842C215.331 128.661 214.22 129.122 213.064 129.122C211.907 129.122 210.796 128.661 209.978 127.842H209.978ZM209.978 121.283C208.794 120.099 206.846 120.099 205.662 121.283C203.968 122.974 201.185 122.974 199.491 121.283C198.307 120.099 196.359 120.099 195.175 121.283C193.482 122.974 190.699 122.974 189.006 121.283C187.821 120.099 185.873 120.099 184.689 121.283C182.995 122.974 180.212 122.974 178.519 121.283C177.947 120.71 177.17 120.387 176.361 120.387C175.551 120.387 174.774 120.71 174.203 121.283C174.08 121.404 173.914 121.472 173.742 121.472C173.383 121.472 173.087 121.176 173.087 120.816C173.087 120.643 173.155 120.478 173.276 120.355C174.093 119.536 175.204 119.075 176.361 119.075C177.517 119.075 178.628 119.536 179.445 120.355C180.631 121.538 182.578 121.538 183.763 120.355C185.457 118.664 188.239 118.664 189.933 120.355C191.118 121.538 193.065 121.538 194.25 120.355C195.943 118.664 198.726 118.664 200.419 120.355C201.603 121.538 203.55 121.538 204.735 120.355C206.429 118.664 209.212 118.664 210.906 120.355C212.09 121.539 214.038 121.539 215.222 120.355C215.345 120.23 215.513 120.16 215.688 120.16C216.048 120.16 216.344 120.456 216.344 120.816C216.344 120.992 216.273 121.16 216.149 121.283C215.331 122.102 214.22 122.563 213.064 122.563C211.907 122.563 210.796 122.102 209.978 121.283H209.978ZM209.978 114.722C208.794 113.538 206.847 113.538 205.662 114.722C203.968 116.412 201.185 116.412 199.491 114.722C198.307 113.538 196.36 113.538 195.175 114.722C193.482 116.412 190.699 116.412 189.006 114.722C187.821 113.538 185.874 113.538 184.689 114.722C182.995 116.412 180.212 116.412 178.519 114.722C177.335 113.537 175.387 113.537 174.203 114.722C174.08 114.843 173.914 114.912 173.741 114.912C173.382 114.912 173.086 114.616 173.086 114.256C173.086 114.084 173.155 113.918 173.276 113.795C174.093 112.976 175.204 112.515 176.361 112.515C177.517 112.515 178.628 112.976 179.445 113.795C180.631 114.978 182.578 114.978 183.763 113.795C185.457 112.104 188.239 112.104 189.933 113.795C191.118 114.978 193.065 114.978 194.25 113.795C195.943 112.104 198.725 112.104 200.419 113.795C201.603 114.978 203.55 114.978 204.735 113.795C206.429 112.104 209.212 112.104 210.906 113.795C211.477 114.37 212.254 114.692 213.064 114.689C213.873 114.692 214.651 114.37 215.222 113.795C215.345 113.671 215.513 113.601 215.687 113.601C216.047 113.601 216.342 113.897 216.342 114.256C216.342 114.431 216.272 114.599 216.149 114.722C215.332 115.543 214.221 116.004 213.063 116.001C211.906 116.004 210.795 115.543 209.978 114.722Z" fill="#CEE2FF"/>
<path fill-rule="evenodd" clip-rule="evenodd" d="M32.2078 244.027L13.2094 244.005L14.2827 235.355L26.5828 234.732L32.2078 244.027Z" fill="#67985C"/>
<path d="M508.586 62.1982C512.956 62.1982 516.5 58.6522 516.5 54.278C516.5 49.9038 512.956 46.3578 508.586 46.3578C504.215 46.3578 500.672 49.9038 500.672 54.278C500.672 58.6522 504.215 62.1982 508.586 62.1982Z" fill="#67985C"/>
<path d="M512.959 55.359C517.329 55.359 520.872 51.813 520.872 47.4388C520.872 43.0646 517.329 39.5186 512.959 39.5186C508.588 39.5186 505.045 43.0646 505.045 47.4388C505.045 51.813 508.588 55.359 512.959 55.359Z" fill="#67985C"/>
<path d="M527.057 62.2296C531.428 62.2296 534.971 58.6836 534.971 54.3094C534.971 49.9352 531.428 46.3892 527.057 46.3892C522.687 46.3892 519.143 49.9352 519.143 54.3094C519.143 58.6836 522.687 62.2296 527.057 62.2296Z" fill="#67985C"/>
<path d="M517.572 62.1572C521.943 62.1572 525.486 58.6112 525.486 54.237C525.486 49.8628 521.943 46.3168 517.572 46.3168C513.202 46.3168 509.658 49.8628 509.658 54.237C509.658 58.6112 513.202 62.1572 517.572 62.1572Z" fill="#67985C"/>
<path d="M523.272 55.0963C527.643 55.0963 531.186 51.5503 531.186 47.1761C531.186 42.8019 527.643 39.2559 523.272 39.2559C518.901 39.2559 515.358 42.8019 515.358 47.1761C515.358 51.5503 518.901 55.0963 523.272 55.0963Z" fill="#67985C"/>
<path fill-rule="evenodd" clip-rule="evenodd" d="M527.332 62.1828L508.334 62.1614L509.407 53.5112L521.707 52.8885L527.332 62.1828Z" fill="#67985C"/>
<path d="M349.333 184.319C353.704 184.319 357.247 180.773 357.247 176.399C357.247 172.025 353.704 168.479 349.333 168.479C344.962 168.479 341.419 172.025 341.419 176.399C341.419 180.773 344.962 184.319 349.333 184.319Z" fill="#67985C"/>
<path d="M353.706 177.48C358.077 177.48 361.62 173.934 361.62 169.56C361.62 165.185 358.077 161.639 353.706 161.639C349.335 161.639 345.792 165.185 345.792 169.56C345.792 173.934 349.335 177.48 353.706 177.48Z" fill="#67985C"/>
<path d="M367.805 184.35C372.176 184.35 375.719 180.804 375.719 176.43C375.719 172.056 372.176 168.51 367.805 168.51C363.434 168.51 359.891 172.056 359.891 176.43C359.891 180.804 363.434 184.35 367.805 184.35Z" fill="#67985C"/>
<path d="M358.32 184.278C362.691 184.278 366.234 180.732 366.234 176.358C366.234 171.984 362.691 168.438 358.32 168.438C353.949 168.438 350.406 171.984 350.406 176.358C350.406 180.732 353.949 184.278 358.32 184.278Z" fill="#67985C"/>
<path d="M364.019 177.217C368.39 177.217 371.933 173.671 371.933 169.297C371.933 164.923 368.39 161.377 364.019 161.377C359.649 161.377 356.106 164.923 356.106 169.297C356.106 173.671 359.649 177.217 364.019 177.217Z" fill="#67985C"/>
<path fill-rule="evenodd" clip-rule="evenodd" d="M368.08 184.303L349.081 184.282L350.154 175.632L362.455 175.009L368.08 184.303Z" fill="#67985C"/>
<path d="M650.935 114.299H608.274V199.688H650.935V114.299Z" fill="#E47E3A"/>
<path d="M693.375 197.878C692.19 196.696 690.244 196.696 689.059 197.878C687.365 199.57 684.582 199.57 682.888 197.878C681.703 196.696 679.757 196.696 678.572 197.878C676.879 199.57 674.096 199.57 672.403 197.878C671.217 196.696 669.271 196.696 668.086 197.878C666.392 199.57 663.609 199.57 661.915 197.878C660.732 196.694 658.784 196.694 657.6 197.878C657.477 198 657.311 198.068 657.138 198.068C656.779 198.068 656.483 197.772 656.483 197.413C656.483 197.24 656.552 197.074 656.673 196.952C657.49 196.133 658.601 195.672 659.758 195.672C660.914 195.672 662.025 196.133 662.842 196.952C664.028 198.135 665.975 198.135 667.16 196.952C668.854 195.261 671.636 195.261 673.33 196.952C674.515 198.135 676.462 198.135 677.646 196.952C679.34 195.261 682.122 195.261 683.816 196.952C685 198.135 686.947 198.135 688.132 196.952C689.826 195.261 692.609 195.261 694.303 196.952C695.487 198.136 697.435 198.136 698.619 196.952C698.742 196.827 698.91 196.757 699.084 196.757C699.444 196.757 699.739 197.053 699.739 197.413C699.739 197.588 699.669 197.755 699.546 197.878C698.728 198.697 697.617 199.158 696.46 199.158C695.304 199.158 694.193 198.697 693.375 197.878H693.375ZM693.375 191.32C692.191 190.135 690.243 190.135 689.059 191.32C687.365 193.011 684.582 193.011 682.888 191.32C681.704 190.135 679.756 190.135 678.572 191.32C676.879 193.011 674.096 193.011 672.403 191.32C671.218 190.135 669.27 190.135 668.086 191.32C666.392 193.01 663.609 193.01 661.915 191.32C661.344 190.746 660.567 190.423 659.758 190.423C658.948 190.423 658.171 190.746 657.6 191.32C657.477 191.441 657.311 191.509 657.139 191.509C656.78 191.509 656.484 191.213 656.484 190.853C656.484 190.68 656.552 190.514 656.673 190.391C657.49 189.572 658.601 189.111 659.758 189.111C660.914 189.111 662.025 189.572 662.842 190.391C664.028 191.575 665.975 191.575 667.16 190.391C668.854 188.7 671.636 188.7 673.33 190.391C674.515 191.575 676.462 191.575 677.646 190.391C679.34 188.7 682.122 188.7 683.816 190.391C685 191.575 686.947 191.575 688.132 190.391C689.826 188.701 692.609 188.701 694.303 190.391C695.487 191.576 697.435 191.576 698.619 190.391C698.742 190.267 698.91 190.196 699.085 190.196C699.445 190.196 699.741 190.493 699.741 190.853C699.741 191.028 699.67 191.196 699.546 191.32C698.728 192.139 697.617 192.599 696.46 192.599C695.304 192.599 694.193 192.139 693.375 191.32H693.375ZM693.375 184.758C692.191 183.575 690.244 183.575 689.059 184.758C687.365 186.449 684.582 186.449 682.888 184.758C681.704 183.575 679.757 183.575 678.572 184.758C676.879 186.449 674.096 186.449 672.403 184.758C671.218 183.575 669.271 183.575 668.086 184.758C666.392 186.449 663.609 186.449 661.915 184.758C660.732 183.574 658.784 183.574 657.6 184.758C657.477 184.88 657.311 184.948 657.138 184.948C656.779 184.948 656.483 184.652 656.483 184.293C656.483 184.12 656.552 183.954 656.673 183.832C657.49 183.012 658.601 182.552 659.758 182.552C660.914 182.552 662.025 183.012 662.842 183.832C664.028 185.015 665.975 185.015 667.16 183.832C668.854 182.141 671.636 182.141 673.33 183.832C674.515 185.015 676.462 185.015 677.646 183.832C679.34 182.141 682.122 182.141 683.816 183.832C685 185.015 686.947 185.015 688.132 183.832C689.826 182.141 692.609 182.141 694.303 183.832C694.873 184.406 695.651 184.729 696.461 184.726C697.27 184.729 698.048 184.406 698.619 183.832C698.742 183.707 698.909 183.637 699.084 183.637C699.444 183.637 699.739 183.933 699.739 184.293C699.739 184.467 699.669 184.635 699.545 184.758C698.729 185.58 697.618 186.041 696.46 186.038C695.303 186.04 694.191 185.579 693.375 184.758Z" fill="#2A468A"/>
</svg>
