<svg width="693" height="798" viewBox="0 0 693 798" fill="none" xmlns="http://www.w3.org/2000/svg">
<path d="M51.1886 486.928C51.1886 486.928 76.5856 463.945 111.471 458.152C146.352 452.358 174.146 425.485 189.334 412.217C204.526 398.945 249.044 387.187 254.343 351.931C259.646 316.674 255.529 305.899 276.289 290.295C297.053 274.691 322.326 274.961 319.002 250.867C315.675 226.773 290.632 209.293 304.493 180.781C318.354 152.27 329.404 142.402 330.423 133.196" stroke="#73ACFF" stroke-width="7.11184" stroke-miterlimit="1.5" stroke-linecap="round" stroke-linejoin="round"/>
<path d="M54.2218 634.16C54.2218 634.16 57.4429 566.843 47.8865 556.843" stroke="#73ACFF" stroke-width="7.11184" stroke-miterlimit="1.5" stroke-linecap="round" stroke-linejoin="round"/>
<path d="M74.9089 418.723C74.9089 418.723 91.0439 427.605 103.433 449.094C115.822 470.579 117.136 469.214 125.703 484.12C134.27 499.022 128.041 513.31 128.041 513.31" stroke="#E0E0E0" stroke-width="7.11184" stroke-miterlimit="1.5" stroke-linecap="round" stroke-linejoin="round"/>
<path d="M73.7124 666.867C73.7124 666.867 64.2817 620.774 76.9361 592.023C89.586 563.277 100.063 537.844 114.605 523.876C129.148 509.904 174.889 476.184 194.979 468.129C215.065 460.074 254.529 459.233 272.82 440.367C291.112 421.501 285.737 408.98 300.898 384.892C316.055 360.803 330.366 354.436 339.097 329.127C347.829 303.818 376.321 257.577 376.321 257.577" stroke="#E0E0E0" stroke-width="7.11083" stroke-miterlimit="1.5" stroke-linecap="round" stroke-linejoin="round"/>
<path d="M68.5186 524.033C71.5916 524.033 74.0827 521.542 74.0827 518.469C74.0827 515.396 71.5916 512.905 68.5186 512.905C65.4457 512.905 62.9546 515.396 62.9546 518.469C62.9546 521.542 65.4457 524.033 68.5186 524.033Z" fill="#67985C"/>
<path d="M72.7601 518.593C75.833 518.593 78.3242 516.101 78.3242 513.029C78.3242 509.956 75.833 507.464 72.7601 507.464C69.6872 507.464 67.196 509.956 67.196 513.029C67.196 516.101 69.6872 518.593 72.7601 518.593Z" fill="#67985C"/>
<path d="M81.5816 525.054C84.6546 525.054 87.1457 522.563 87.1457 519.49C87.1457 516.417 84.6546 513.926 81.5816 513.926C78.5087 513.926 76.0176 516.417 76.0176 519.49C76.0176 522.563 78.5087 525.054 81.5816 525.054Z" fill="#67985C"/>
<path d="M74.9898 523.966C78.0628 523.966 80.5539 521.475 80.5539 518.402C80.5539 515.329 78.0628 512.838 74.9898 512.838C71.9169 512.838 69.4258 515.329 69.4258 518.402C69.4258 521.475 71.9169 523.966 74.9898 523.966Z" fill="#67985C"/>
<path d="M78.7911 519.052C81.864 519.052 84.3552 516.561 84.3552 513.488C84.3552 510.415 81.864 507.924 78.7911 507.924C75.7182 507.924 73.2271 510.415 73.2271 513.488C73.2271 516.561 75.7182 519.052 78.7911 519.052Z" fill="#67985C"/>
<path d="M74.7344 539.255V526.546" stroke="#0B3000" stroke-width="1.77558" stroke-miterlimit="1.5" stroke-linecap="round" stroke-linejoin="round"/>
<path d="M74.5742 526.237L69.7097 521.412" stroke="#0B3000" stroke-width="1.62497" stroke-miterlimit="1.5" stroke-linecap="round" stroke-linejoin="round"/>
<path d="M74.8251 526.508L79.6896 521.683" stroke="#0B3000" stroke-width="1.62497" stroke-miterlimit="1.5" stroke-linecap="round" stroke-linejoin="round"/>
<path d="M90.1888 503.964C93.2618 503.964 95.7529 501.472 95.7529 498.4C95.7529 495.327 93.2618 492.835 90.1888 492.835C87.1159 492.835 84.6248 495.327 84.6248 498.4C84.6248 501.472 87.1159 503.964 90.1888 503.964Z" fill="#67985C"/>
<path d="M94.4303 498.523C97.5032 498.523 99.9943 496.032 99.9943 492.959C99.9943 489.886 97.5032 487.395 94.4303 487.395C91.3573 487.395 88.8662 489.886 88.8662 492.959C88.8662 496.032 91.3573 498.523 94.4303 498.523Z" fill="#67985C"/>
<path d="M103.252 504.984C106.325 504.984 108.816 502.493 108.816 499.42C108.816 496.347 106.325 493.856 103.252 493.856C100.179 493.856 97.6877 496.347 97.6877 499.42C97.6877 502.493 100.179 504.984 103.252 504.984Z" fill="#67985C"/>
<path d="M96.6598 503.896C99.7327 503.896 102.224 501.405 102.224 498.332C102.224 495.259 99.7327 492.768 96.6598 492.768C93.5868 492.768 91.0957 495.259 91.0957 498.332C91.0957 501.405 93.5868 503.896 96.6598 503.896Z" fill="#67985C"/>
<path d="M100.461 498.982C103.534 498.982 106.025 496.491 106.025 493.418C106.025 490.345 103.534 487.854 100.461 487.854C97.3881 487.854 94.897 490.345 94.897 493.418C94.897 496.491 97.3881 498.982 100.461 498.982Z" fill="#67985C"/>
<path d="M96.4043 519.185V506.476" stroke="#0B3000" stroke-width="1.77558" stroke-miterlimit="1.5" stroke-linecap="round" stroke-linejoin="round"/>
<path d="M96.2444 506.167L91.3799 501.342" stroke="#0B3000" stroke-width="1.62497" stroke-miterlimit="1.5" stroke-linecap="round" stroke-linejoin="round"/>
<path d="M96.4951 506.438L101.36 501.613" stroke="#0B3000" stroke-width="1.62497" stroke-miterlimit="1.5" stroke-linecap="round" stroke-linejoin="round"/>
<path d="M122.469 550.644C125.542 550.644 128.033 548.153 128.033 545.08C128.033 542.007 125.542 539.516 122.469 539.516C119.396 539.516 116.905 542.007 116.905 545.08C116.905 548.153 119.396 550.644 122.469 550.644Z" fill="#67985C"/>
<path d="M126.71 545.203C129.783 545.203 132.274 542.712 132.274 539.639C132.274 536.566 129.783 534.075 126.71 534.075C123.637 534.075 121.146 536.566 121.146 539.639C121.146 542.712 123.637 545.203 126.71 545.203Z" fill="#67985C"/>
<path d="M135.532 551.664C138.605 551.664 141.096 549.173 141.096 546.1C141.096 543.027 138.605 540.536 135.532 540.536C132.459 540.536 129.968 543.027 129.968 546.1C129.968 549.173 132.459 551.664 135.532 551.664Z" fill="#67985C"/>
<path d="M128.94 550.576C132.013 550.576 134.504 548.085 134.504 545.012C134.504 541.939 132.013 539.448 128.94 539.448C125.867 539.448 123.376 541.939 123.376 545.012C123.376 548.085 125.867 550.576 128.94 550.576Z" fill="#67985C"/>
<path d="M132.741 545.662C135.814 545.662 138.305 543.171 138.305 540.098C138.305 537.025 135.814 534.534 132.741 534.534C129.668 534.534 127.177 537.025 127.177 540.098C127.177 543.171 129.668 545.662 132.741 545.662Z" fill="#67985C"/>
<path d="M128.685 565.865V553.156" stroke="#0B3000" stroke-width="1.77558" stroke-miterlimit="1.5" stroke-linecap="round" stroke-linejoin="round"/>
<path d="M128.524 552.847L123.66 548.022" stroke="#0B3000" stroke-width="1.62497" stroke-miterlimit="1.5" stroke-linecap="round" stroke-linejoin="round"/>
<path d="M128.775 553.118L133.64 548.293" stroke="#0B3000" stroke-width="1.62497" stroke-miterlimit="1.5" stroke-linecap="round" stroke-linejoin="round"/>
<path d="M104.459 585.984C107.532 585.984 110.023 583.492 110.023 580.42C110.023 577.347 107.532 574.855 104.459 574.855C101.386 574.855 98.8948 577.347 98.8948 580.42C98.8948 583.492 101.386 585.984 104.459 585.984Z" fill="#67985C"/>
<path d="M108.7 580.543C111.773 580.543 114.264 578.052 114.264 574.979C114.264 571.906 111.773 569.415 108.7 569.415C105.627 569.415 103.136 571.906 103.136 574.979C103.136 578.052 105.627 580.543 108.7 580.543Z" fill="#67985C"/>
<path d="M117.522 587.004C120.595 587.004 123.086 584.513 123.086 581.44C123.086 578.367 120.595 575.876 117.522 575.876C114.449 575.876 111.958 578.367 111.958 581.44C111.958 584.513 114.449 587.004 117.522 587.004Z" fill="#67985C"/>
<path d="M110.93 585.916C114.003 585.916 116.494 583.425 116.494 580.352C116.494 577.279 114.003 574.788 110.93 574.788C107.857 574.788 105.366 577.279 105.366 580.352C105.366 583.425 107.857 585.916 110.93 585.916Z" fill="#67985C"/>
<path d="M114.731 581.002C117.804 581.002 120.295 578.511 120.295 575.438C120.295 572.365 117.804 569.874 114.731 569.874C111.658 569.874 109.167 572.365 109.167 575.438C109.167 578.511 111.658 581.002 114.731 581.002Z" fill="#67985C"/>
<path d="M110.674 601.205V588.496" stroke="#0B3000" stroke-width="1.77558" stroke-miterlimit="1.5" stroke-linecap="round" stroke-linejoin="round"/>
<path d="M110.514 588.187L105.65 583.362" stroke="#0B3000" stroke-width="1.62497" stroke-miterlimit="1.5" stroke-linecap="round" stroke-linejoin="round"/>
<path d="M110.765 588.458L115.63 583.633" stroke="#0B3000" stroke-width="1.62497" stroke-miterlimit="1.5" stroke-linecap="round" stroke-linejoin="round"/>
<path d="M62.3788 563.593C65.4517 563.593 67.9428 561.102 67.9428 558.029C67.9428 554.956 65.4517 552.465 62.3788 552.465C59.3058 552.465 56.8147 554.956 56.8147 558.029C56.8147 561.102 59.3058 563.593 62.3788 563.593Z" fill="#67985C"/>
<path d="M66.6202 558.153C69.6931 558.153 72.1843 555.662 72.1843 552.589C72.1843 549.516 69.6931 547.025 66.6202 547.025C63.5473 547.025 61.0562 549.516 61.0562 552.589C61.0562 555.662 63.5473 558.153 66.6202 558.153Z" fill="#67985C"/>
<path d="M75.4417 564.614C78.5147 564.614 81.0058 562.123 81.0058 559.05C81.0058 555.977 78.5147 553.486 75.4417 553.486C72.3688 553.486 69.8777 555.977 69.8777 559.05C69.8777 562.123 72.3688 564.614 75.4417 564.614Z" fill="#67985C"/>
<path d="M68.8497 563.526C71.9226 563.526 74.4137 561.035 74.4137 557.962C74.4137 554.889 71.9226 552.398 68.8497 552.398C65.7768 552.398 63.2856 554.889 63.2856 557.962C63.2856 561.035 65.7768 563.526 68.8497 563.526Z" fill="#67985C"/>
<path d="M72.6512 558.612C75.7242 558.612 78.2153 556.121 78.2153 553.048C78.2153 549.975 75.7242 547.484 72.6512 547.484C69.5783 547.484 67.0872 549.975 67.0872 553.048C67.0872 556.121 69.5783 558.612 72.6512 558.612Z" fill="#67985C"/>
<path d="M68.5945 578.815V566.106" stroke="#0B3000" stroke-width="1.77558" stroke-miterlimit="1.5" stroke-linecap="round" stroke-linejoin="round"/>
<path d="M68.4343 565.797L63.5698 560.972" stroke="#0B3000" stroke-width="1.62497" stroke-miterlimit="1.5" stroke-linecap="round" stroke-linejoin="round"/>
<path d="M68.6853 566.068L73.5498 561.243" stroke="#0B3000" stroke-width="1.62497" stroke-miterlimit="1.5" stroke-linecap="round" stroke-linejoin="round"/>
<path d="M142.948 474.195C144.065 475.679 138.452 467.23 138.452 467.23L154.849 459.774" stroke="#D68349" stroke-width="9.05566" stroke-miterlimit="1.5" stroke-linecap="round" stroke-linejoin="round"/>
<path fill-rule="evenodd" clip-rule="evenodd" d="M159.189 466.973L144.907 474.658L155.08 460.72L159.189 466.973Z" fill="#D68349" stroke="#D68349" stroke-width="8.19741" stroke-miterlimit="1.5" stroke-linecap="round" stroke-linejoin="round"/>
<path fill-rule="evenodd" clip-rule="evenodd" d="M193.752 480.148L196.163 484.922L203.881 481.044L201.282 476.283L193.752 480.148Z" stroke="#D68349" stroke-width="7.11184" stroke-miterlimit="1.5" stroke-linecap="round" stroke-linejoin="round"/>
<path fill-rule="evenodd" clip-rule="evenodd" d="M366.369 350.778L353.345 342.259L359.138 329.485L376.009 342.611L366.369 350.778Z" fill="#D68349" stroke="#D68349" stroke-width="10.664" stroke-miterlimit="1.5" stroke-linecap="round" stroke-linejoin="round"/>
<path fill-rule="evenodd" clip-rule="evenodd" d="M121.997 359.129C121.997 359.129 107.463 342.823 101.911 342.164C96.354 341.506 90.8016 324.888 85.1023 315.275C79.3984 305.661 63.5649 284.531 63.8766 268.323C64.1883 252.116 74.0108 239.443 78.8152 222.914C83.6151 206.384 89.3278 194.907 97.3692 185.388C105.415 175.869 125.314 167.045 135.083 158.569C144.856 150.094 167.6 131.094 167.6 131.094L199.628 142.725L191.026 161.51C191.026 161.51 226.918 161.036 238.054 173.572C249.19 186.109 259.307 207.059 272.135 197.884C284.963 188.71 289.633 178.56 294.433 168.514C299.233 158.468 291.259 146.458 291.259 146.458L307.422 140.762C307.422 140.762 318.722 103.947 295.373 104.181C272.019 104.415 269.628 111.932 256.706 117.407C243.789 122.883 226.348 142.187 216.17 129.029C205.986 115.872 194.174 114.762 178.38 119.566C162.591 124.369 156.331 132.23 151.74 134.463C147.149 136.696 145.297 127.881 145.297 127.881C145.297 127.881 149.447 98.6538 161.545 89.2904C173.643 79.927 134.442 69.9202 122.687 67.9592C110.936 65.9983 125.977 60.7981 129.896 48.6927C133.814 36.5874 131.298 35.1893 139.469 27.2503C147.639 19.3112 183.514 4 183.514 4C183.514 4 185.46 25.4496 195.714 34.2231C205.969 42.9961 208.979 57.8611 217.087 56.8419C225.191 55.8223 253.46 52.0674 263.318 60.6315C273.176 69.1962 279.824 74.2205 289.442 61.734C299.055 49.2475 306.923 60.1556 312.6 76.6476C318.277 93.1401 322.293 92.9211 325.13 81.3536C327.97 69.7861 334.801 64.5245 334.801 64.5245C334.801 64.5245 328.848 119.556 331.604 140.135C334.36 160.714 316.037 168.629 316.037 168.629C316.037 168.629 333.857 167.3 335.629 186.505C337.405 205.71 340.469 241.106 354.227 245.212C367.982 249.318 380.992 254.607 390.726 264.564C400.463 274.52 441.9 311.733 452.23 310.761C462.564 309.789 474.381 312.394 482.939 326.024C491.502 339.658 548.687 382.332 565.678 390.248C582.665 398.165 572.344 403.21 574.521 424.6C576.694 445.986 619.559 506.497 639.997 505.05C660.434 503.603 697.226 490.584 687.426 503.608C677.626 516.636 640.909 519.913 640.909 519.913C640.909 519.913 609.71 541.259 598.436 539.344C587.162 537.425 574.459 522.433 557.093 529.29C539.724 536.147 471.478 542.817 460.797 561.786C450.115 580.749 485.874 554.759 481.029 570.704C476.185 586.653 447.817 593.007 452.568 604.905C457.319 616.802 454.171 613.863 437.91 622.613C421.649 631.362 400.811 628.633 385.347 640.339C369.887 652.04 312.293 662.789 303.387 668.127C294.478 673.471 325.143 719.092 333.532 730.811C341.92 742.531 362.069 765.542 356.605 777.332C351.146 789.123 321.006 792.164 306.389 793.437C291.775 794.715 291.103 784.323 274.677 784.572C258.251 784.826 237.992 775.529 228.031 782.965C218.066 790.401 190.197 762.51 179.168 760.466C168.144 758.422 149.184 743.435 136.766 751.075C124.352 758.712 100.98 725.7 89.5949 730.179C78.2096 734.663 75.213 692.367 75.8898 680.711C76.5666 669.054 62.4829 633.321 50.0468 634.207C37.6155 635.089 4 597.749 4 597.749C4 597.749 24.0524 584.356 20.8006 548.624C17.5484 512.896 50.3584 561.06 50.3584 561.06C50.3584 561.06 44.0727 493.18 66.7708 489.845C89.4703 486.514 25.0137 488.665 25.0137 488.665L41.4176 446.957C41.4176 446.957 54.8422 459.954 60.88 454.526C66.9177 449.094 59.6912 452.505 62.0599 437.157C64.4332 421.804 121.997 359.129 121.997 359.129Z" stroke="#304585" stroke-width="7.11083" stroke-miterlimit="1.5" stroke-linecap="round" stroke-linejoin="round"/>
<path fill-rule="evenodd" clip-rule="evenodd" d="M148.507 461.338C148.507 461.338 138.462 448.499 138.462 442.996C138.462 437.452 142.963 432.95 148.507 432.95C154.054 432.95 158.556 437.452 158.556 442.996C158.556 448.499 148.507 461.338 148.507 461.338Z" fill="#304585"/>
<path fill-rule="evenodd" clip-rule="evenodd" d="M198.707 477.328C198.707 477.328 188.662 464.489 188.662 458.986C188.662 453.442 193.163 448.94 198.707 448.94C204.254 448.94 208.756 453.442 208.756 458.986C208.756 464.489 198.707 477.328 198.707 477.328Z" fill="#304585"/>
<path fill-rule="evenodd" clip-rule="evenodd" d="M362.807 335.648C362.807 335.648 352.762 322.809 352.762 317.306C352.762 311.762 357.263 307.26 362.807 307.26C368.355 307.26 372.856 311.762 372.856 317.306C372.856 322.809 362.807 335.648 362.807 335.648Z" fill="#304585"/>
<path d="M362.81 318.781C364.624 318.781 366.094 317.311 366.094 315.498C366.094 313.684 364.624 312.214 362.81 312.214C360.997 312.214 359.527 313.684 359.527 315.498C359.527 317.311 360.997 318.781 362.81 318.781Z" fill="white"/>
<path d="M198.71 460.651C200.523 460.651 201.993 459.181 201.993 457.367C201.993 455.554 200.523 454.084 198.71 454.084C196.897 454.084 195.427 455.554 195.427 457.367C195.427 459.181 196.897 460.651 198.71 460.651Z" fill="white"/>
<path d="M419.399 333.829C422.472 333.829 424.963 331.337 424.963 328.265C424.963 325.192 422.472 322.701 419.399 322.701C416.326 322.701 413.835 325.192 413.835 328.265C413.835 331.337 416.326 333.829 419.399 333.829Z" fill="#67985C"/>
<path d="M423.64 328.388C426.713 328.388 429.204 325.897 429.204 322.824C429.204 319.751 426.713 317.26 423.64 317.26C420.567 317.26 418.076 319.751 418.076 322.824C418.076 325.897 420.567 328.388 423.64 328.388Z" fill="#67985C"/>
<path d="M432.462 334.849C435.535 334.849 438.026 332.358 438.026 329.285C438.026 326.212 435.535 323.721 432.462 323.721C429.389 323.721 426.898 326.212 426.898 329.285C426.898 332.358 429.389 334.849 432.462 334.849Z" fill="#67985C"/>
<path d="M425.87 333.761C428.943 333.761 431.434 331.27 431.434 328.197C431.434 325.124 428.943 322.633 425.87 322.633C422.797 322.633 420.306 325.124 420.306 328.197C420.306 331.27 422.797 333.761 425.87 333.761Z" fill="#67985C"/>
<path d="M429.671 328.847C432.744 328.847 435.235 326.356 435.235 323.283C435.235 320.21 432.744 317.719 429.671 317.719C426.598 317.719 424.107 320.21 424.107 323.283C424.107 326.356 426.598 328.847 429.671 328.847Z" fill="#67985C"/>
<path d="M425.614 349.05V336.341" stroke="#0B3000" stroke-width="1.77558" stroke-miterlimit="1.5" stroke-linecap="round" stroke-linejoin="round"/>
<path d="M425.454 336.032L420.59 331.207" stroke="#0B3000" stroke-width="1.62497" stroke-miterlimit="1.5" stroke-linecap="round" stroke-linejoin="round"/>
<path d="M425.705 336.303L430.57 331.478" stroke="#0B3000" stroke-width="1.62497" stroke-miterlimit="1.5" stroke-linecap="round" stroke-linejoin="round"/>
<path d="M401.389 369.168C404.461 369.168 406.953 366.676 406.953 363.603C406.953 360.531 404.461 358.039 401.389 358.039C398.316 358.039 395.824 360.531 395.824 363.603C395.824 366.676 398.316 369.168 401.389 369.168Z" fill="#67985C"/>
<path d="M405.63 363.727C408.703 363.727 411.194 361.236 411.194 358.163C411.194 355.09 408.703 352.599 405.63 352.599C402.557 352.599 400.066 355.09 400.066 358.163C400.066 361.236 402.557 363.727 405.63 363.727Z" fill="#67985C"/>
<path d="M414.452 370.188C417.525 370.188 420.016 367.697 420.016 364.624C420.016 361.551 417.525 359.06 414.452 359.06C411.379 359.06 408.888 361.551 408.888 364.624C408.888 367.697 411.379 370.188 414.452 370.188Z" fill="#67985C"/>
<path d="M407.86 369.1C410.933 369.1 413.424 366.609 413.424 363.536C413.424 360.463 410.933 357.972 407.86 357.972C404.787 357.972 402.296 360.463 402.296 363.536C402.296 366.609 404.787 369.1 407.86 369.1Z" fill="#67985C"/>
<path d="M411.661 364.186C414.734 364.186 417.225 361.695 417.225 358.622C417.225 355.549 414.734 353.058 411.661 353.058C408.588 353.058 406.097 355.549 406.097 358.622C406.097 361.695 408.588 364.186 411.661 364.186Z" fill="#67985C"/>
<path d="M407.604 384.389V371.68" stroke="#0B3000" stroke-width="1.77558" stroke-miterlimit="1.5" stroke-linecap="round" stroke-linejoin="round"/>
<path d="M407.444 371.371L402.58 366.546" stroke="#0B3000" stroke-width="1.62497" stroke-miterlimit="1.5" stroke-linecap="round" stroke-linejoin="round"/>
<path d="M407.695 371.642L412.56 366.817" stroke="#0B3000" stroke-width="1.62497" stroke-miterlimit="1.5" stroke-linecap="round" stroke-linejoin="round"/>
<path d="M151.419 201.979C154.492 201.979 156.983 199.487 156.983 196.414C156.983 193.342 154.492 190.85 151.419 190.85C148.346 190.85 145.855 193.342 145.855 196.414C145.855 199.487 148.346 201.979 151.419 201.979Z" fill="#67985C"/>
<path d="M155.66 196.538C158.733 196.538 161.224 194.047 161.224 190.974C161.224 187.901 158.733 185.41 155.66 185.41C152.587 185.41 150.096 187.901 150.096 190.974C150.096 194.047 152.587 196.538 155.66 196.538Z" fill="#67985C"/>
<path d="M164.482 202.999C167.555 202.999 170.046 200.508 170.046 197.435C170.046 194.362 167.555 191.871 164.482 191.871C161.409 191.871 158.918 194.362 158.918 197.435C158.918 200.508 161.409 202.999 164.482 202.999Z" fill="#67985C"/>
<path d="M157.89 201.911C160.963 201.911 163.454 199.42 163.454 196.347C163.454 193.274 160.963 190.783 157.89 190.783C154.817 190.783 152.326 193.274 152.326 196.347C152.326 199.42 154.817 201.911 157.89 201.911Z" fill="#67985C"/>
<path d="M161.691 196.997C164.764 196.997 167.255 194.506 167.255 191.433C167.255 188.36 164.764 185.869 161.691 185.869C158.618 185.869 156.127 188.36 156.127 191.433C156.127 194.506 158.618 196.997 161.691 196.997Z" fill="#67985C"/>
<path d="M157.635 217.2V204.491" stroke="#0B3000" stroke-width="1.77558" stroke-miterlimit="1.5" stroke-linecap="round" stroke-linejoin="round"/>
<path d="M157.474 204.182L152.61 199.357" stroke="#0B3000" stroke-width="1.62497" stroke-miterlimit="1.5" stroke-linecap="round" stroke-linejoin="round"/>
<path d="M157.725 204.453L162.59 199.628" stroke="#0B3000" stroke-width="1.62497" stroke-miterlimit="1.5" stroke-linecap="round" stroke-linejoin="round"/>
<path d="M133.399 237.318C136.472 237.318 138.963 234.827 138.963 231.754C138.963 228.681 136.472 226.19 133.399 226.19C130.326 226.19 127.835 228.681 127.835 231.754C127.835 234.827 130.326 237.318 133.399 237.318Z" fill="#67985C"/>
<path d="M137.64 231.877C140.713 231.877 143.204 229.386 143.204 226.313C143.204 223.24 140.713 220.749 137.64 220.749C134.567 220.749 132.076 223.24 132.076 226.313C132.076 229.386 134.567 231.877 137.64 231.877Z" fill="#67985C"/>
<path d="M146.462 238.338C149.535 238.338 152.026 235.847 152.026 232.774C152.026 229.701 149.535 227.21 146.462 227.21C143.389 227.21 140.898 229.701 140.898 232.774C140.898 235.847 143.389 238.338 146.462 238.338Z" fill="#67985C"/>
<path d="M139.87 237.25C142.943 237.25 145.434 234.759 145.434 231.686C145.434 228.613 142.943 226.122 139.87 226.122C136.797 226.122 134.306 228.613 134.306 231.686C134.306 234.759 136.797 237.25 139.87 237.25Z" fill="#67985C"/>
<path d="M143.671 232.336C146.744 232.336 149.235 229.845 149.235 226.772C149.235 223.699 146.744 221.208 143.671 221.208C140.598 221.208 138.107 223.699 138.107 226.772C138.107 229.845 140.598 232.336 143.671 232.336Z" fill="#67985C"/>
<path d="M139.615 252.539V239.83" stroke="#0B3000" stroke-width="1.77558" stroke-miterlimit="1.5" stroke-linecap="round" stroke-linejoin="round"/>
<path d="M139.454 239.521L134.59 234.696" stroke="#0B3000" stroke-width="1.62497" stroke-miterlimit="1.5" stroke-linecap="round" stroke-linejoin="round"/>
<path d="M139.705 239.792L144.57 234.967" stroke="#0B3000" stroke-width="1.62497" stroke-miterlimit="1.5" stroke-linecap="round" stroke-linejoin="round"/>
<path d="M176.749 245.185C179.822 245.185 182.313 242.693 182.313 239.621C182.313 236.548 179.822 234.056 176.749 234.056C173.676 234.056 171.185 236.548 171.185 239.621C171.185 242.693 173.676 245.185 176.749 245.185Z" fill="#67985C"/>
<path d="M180.99 239.744C184.063 239.744 186.554 237.253 186.554 234.18C186.554 231.107 184.063 228.616 180.99 228.616C177.917 228.616 175.426 231.107 175.426 234.18C175.426 237.253 177.917 239.744 180.99 239.744Z" fill="#67985C"/>
<path d="M189.812 246.205C192.885 246.205 195.376 243.714 195.376 240.641C195.376 237.568 192.885 235.077 189.812 235.077C186.739 235.077 184.248 237.568 184.248 240.641C184.248 243.714 186.739 246.205 189.812 246.205Z" fill="#67985C"/>
<path d="M183.22 245.117C186.293 245.117 188.784 242.626 188.784 239.553C188.784 236.48 186.293 233.989 183.22 233.989C180.147 233.989 177.656 236.48 177.656 239.553C177.656 242.626 180.147 245.117 183.22 245.117Z" fill="#67985C"/>
<path d="M187.021 240.203C190.094 240.203 192.585 237.712 192.585 234.639C192.585 231.566 190.094 229.075 187.021 229.075C183.948 229.075 181.457 231.566 181.457 234.639C181.457 237.712 183.948 240.203 187.021 240.203Z" fill="#67985C"/>
<path d="M182.965 260.406V247.697" stroke="#0B3000" stroke-width="1.77558" stroke-miterlimit="1.5" stroke-linecap="round" stroke-linejoin="round"/>
<path d="M182.804 247.388L177.94 242.563" stroke="#0B3000" stroke-width="1.62497" stroke-miterlimit="1.5" stroke-linecap="round" stroke-linejoin="round"/>
<path d="M183.055 247.659L187.92 242.834" stroke="#0B3000" stroke-width="1.62497" stroke-miterlimit="1.5" stroke-linecap="round" stroke-linejoin="round"/>
<path d="M158.739 280.524C161.812 280.524 164.303 278.032 164.303 274.96C164.303 271.887 161.812 269.395 158.739 269.395C155.666 269.395 153.175 271.887 153.175 274.96C153.175 278.032 155.666 280.524 158.739 280.524Z" fill="#67985C"/>
<path d="M162.98 275.083C166.053 275.083 168.544 272.592 168.544 269.519C168.544 266.446 166.053 263.955 162.98 263.955C159.907 263.955 157.416 266.446 157.416 269.519C157.416 272.592 159.907 275.083 162.98 275.083Z" fill="#67985C"/>
<path d="M171.802 281.544C174.875 281.544 177.366 279.053 177.366 275.98C177.366 272.907 174.875 270.416 171.802 270.416C168.729 270.416 166.238 272.907 166.238 275.98C166.238 279.053 168.729 281.544 171.802 281.544Z" fill="#67985C"/>
<path d="M165.21 280.456C168.283 280.456 170.774 277.965 170.774 274.892C170.774 271.819 168.283 269.328 165.21 269.328C162.137 269.328 159.646 271.819 159.646 274.892C159.646 277.965 162.137 280.456 165.21 280.456Z" fill="#67985C"/>
<path d="M169.011 275.542C172.084 275.542 174.575 273.051 174.575 269.978C174.575 266.905 172.084 264.414 169.011 264.414C165.938 264.414 163.447 266.905 163.447 269.978C163.447 273.051 165.938 275.542 169.011 275.542Z" fill="#67985C"/>
<path d="M164.954 295.745V283.036" stroke="#0B3000" stroke-width="1.77558" stroke-miterlimit="1.5" stroke-linecap="round" stroke-linejoin="round"/>
<path d="M164.794 282.727L159.93 277.902" stroke="#0B3000" stroke-width="1.62497" stroke-miterlimit="1.5" stroke-linecap="round" stroke-linejoin="round"/>
<path d="M165.045 282.998L169.91 278.173" stroke="#0B3000" stroke-width="1.62497" stroke-miterlimit="1.5" stroke-linecap="round" stroke-linejoin="round"/>
<path d="M148.51 444.611C150.323 444.611 151.793 443.141 151.793 441.327C151.793 439.514 150.323 438.044 148.51 438.044C146.697 438.044 145.227 439.514 145.227 441.327C145.227 443.141 146.697 444.611 148.51 444.611Z" fill="white"/>
</svg>
